<svg width="32" height="32" viewBox="0 0 32 32" fill="none" xmlns="http://www.w3.org/2000/svg">
<g clip-path="url(#clip0_12852_14285)">
<path d="M31.3544 5.43528C31.2185 5.02763 30.8109 4.68795 30.4032 4.61999C29.9276 4.48413 29.52 4.61999 29.1803 4.95967L26.4627 7.67731L24.6283 5.84292L27.4818 2.92146C27.7535 2.64968 27.8894 2.17414 27.8214 1.76649C27.7535 1.35885 27.4818 1.01917 27.0741 0.815349C25.9871 0.271783 24.6962 0 23.4733 0C21.2313 0 19.1251 0.815285 17.4945 2.44585C15.5243 4.48407 14.641 7.33756 15.1845 10.0552L10.089 15.1507C9.61339 15.0828 9.06988 15.0149 8.52638 15.0149C6.28435 15.0149 4.17817 15.8981 2.5476 17.5287C0.16971 19.9066 -0.577614 23.5074 0.645314 26.6326C0.781174 27.0403 1.18882 27.3799 1.59646 27.4479C2.07206 27.5838 2.47971 27.4479 2.81939 27.1082L5.53702 24.3906L7.37142 26.225L4.51792 29.0785C4.24614 29.3503 4.11028 29.8258 4.17824 30.2334C4.2462 30.6411 4.51792 30.9808 4.92556 31.1846C6.01263 31.7281 7.30345 31.9999 8.52638 31.9999C10.7684 31.9999 12.8746 31.1166 14.5052 29.622C16.4754 27.5838 17.3587 24.7303 16.8152 22.0126L21.9107 16.9171C22.3863 16.9851 22.9298 17.053 23.4733 17.053C25.7153 17.053 27.8215 16.1697 29.4521 14.5391C31.8299 12.1614 32.5773 8.56049 31.3544 5.43528ZM27.5497 12.6369C26.4626 13.724 25.0358 14.3354 23.4732 14.3354C22.9297 14.3354 22.3862 14.2675 21.8427 14.1316C21.3671 13.9958 20.8915 14.1316 20.5518 14.4713L14.4371 20.5859C14.0975 20.9256 13.9615 21.4012 14.0975 21.8768C14.641 23.983 14.0975 26.1571 12.6027 27.6518C11.5157 28.7389 10.0889 29.3503 8.52632 29.3503C8.39046 29.3503 8.18664 29.3503 8.05071 29.3503L10.2248 27.1762C10.7683 26.6327 10.7683 25.8175 10.2248 25.2739L6.48804 21.5372C5.94454 21.0615 5.06129 21.0615 4.58569 21.5372L2.68353 23.4394C2.68353 21.9447 3.29499 20.518 4.38206 19.431C5.46906 18.3439 6.89581 17.7324 8.45842 17.7324C9.00192 17.7324 9.54549 17.8004 10.089 17.9363C10.5646 18.0721 11.0401 17.9363 11.3799 17.5966L17.4945 11.482C17.8342 11.1423 17.9701 10.6667 17.8342 10.1911C17.2907 8.08489 17.8342 5.91082 19.3289 4.41611C20.4839 3.19318 22.1824 2.58171 23.8809 2.71757L21.7068 4.89171C21.1633 5.43521 21.1633 6.2505 21.7068 6.79406L25.4436 10.5308C25.7153 10.8026 26.055 10.9384 26.3947 10.9384C26.7344 10.9384 27.0741 10.8026 27.3458 10.5308L29.2482 8.62845C29.2482 10.1232 28.6367 11.5499 27.5497 12.6369Z" fill="#FB4414"/>
</g>
<defs>
<clipPath id="clip0_12852_14285">
<rect width="32" height="32" fill="white"/>
</clipPath>
</defs>
</svg>
