<svg width="189" height="189" viewBox="0 0 189 189" fill="none" xmlns="http://www.w3.org/2000/svg">
<g opacity="0.1" clip-path="url(#clip0_12191_926)">
<path d="M94.4996 131.414C94.4996 131.414 46.5115 105.944 46.5115 61.2776V29.5316C46.5115 17.2995 56.4277 7.38326 68.6598 7.38326H120.339C132.572 7.38326 142.488 17.2995 142.488 29.5316V61.2776C142.488 106.682 94.4996 131.414 94.4996 131.414ZM94.4996 131.414V155.777" stroke="white" stroke-width="14.7656" stroke-miterlimit="10" stroke-linecap="round" stroke-linejoin="round"/>
<path d="M142.488 45.4045C142.488 34.5994 151.247 25.8401 162.052 25.8401C172.857 25.8401 181.617 34.5994 181.617 45.4045C181.617 88.9629 156.146 105.574 156.146 105.574" stroke="white" stroke-width="14.7656" stroke-miterlimit="10" stroke-linecap="round" stroke-linejoin="round"/>
<path d="M46.5116 45.4045C46.5116 34.5994 37.7523 25.8401 26.9472 25.8401C16.1421 25.8401 7.38281 34.5994 7.38281 45.4045C7.38281 88.9629 32.8534 105.574 32.8534 105.574" stroke="white" stroke-width="14.7656" stroke-miterlimit="10" stroke-linecap="round" stroke-linejoin="round"/>
<path d="M131.414 181.617H57.5857" stroke="white" stroke-width="14.7656" stroke-miterlimit="10" stroke-linecap="round" stroke-linejoin="round"/>
<path d="M112.957 40.9751H76.0427" stroke="white" stroke-width="14.7656" stroke-miterlimit="10" stroke-linecap="round" stroke-linejoin="round"/>
</g>
<defs>
<clipPath id="clip0_12191_926">
<rect width="189" height="189" fill="white"/>
</clipPath>
</defs>
</svg>
