<svg width="189" height="189" viewBox="0 0 189 189" fill="none" xmlns="http://www.w3.org/2000/svg">
<g opacity="0.1" clip-path="url(#clip0_12196_1123)">
<path d="M149.953 80.8102C160.335 107.303 154.823 138.586 133.415 159.993C104.584 188.825 57.8383 188.825 29.0066 159.993C0.174879 131.162 0.174879 84.4164 29.0066 55.5846C50.4138 34.1774 81.6963 28.6651 108.19 39.0468" stroke="white" stroke-width="14.7656" stroke-miterlimit="10" stroke-linecap="round" stroke-linejoin="round"/>
<path d="M125.42 105.342C126.086 117.486 121.79 129.854 112.533 139.111C95.2609 156.384 67.1604 156.384 49.8879 139.111C32.6155 121.839 32.6155 93.7383 49.8879 76.4658C59.1452 67.2085 71.5129 62.9128 83.6569 63.5788" stroke="white" stroke-width="14.7656" stroke-miterlimit="10" stroke-linecap="round" stroke-linejoin="round"/>
<path d="M81.2109 122.555C89.3658 122.555 95.9766 115.944 95.9766 107.789C95.9766 99.6342 89.3658 93.0234 81.2109 93.0234C73.0561 93.0234 66.4453 99.6342 66.4453 107.789C66.4453 115.944 73.0561 122.555 81.2109 122.555Z" stroke="white" stroke-width="14.7656" stroke-miterlimit="10" stroke-linecap="round" stroke-linejoin="round"/>
<path d="M122.974 66.0256L91.6516 97.3483M164.738 45.1437C158.971 50.91 149.622 50.91 143.856 45.1437C138.09 39.3773 138.09 30.0281 143.856 24.2618L160.735 7.38281V28.2647H181.617L164.738 45.1437Z" stroke="white" stroke-width="14.7656" stroke-miterlimit="10" stroke-linecap="round" stroke-linejoin="round"/>
</g>
<defs>
<clipPath id="clip0_12196_1123">
<rect width="189" height="189" fill="white"/>
</clipPath>
</defs>
</svg>
