<svg width="102" height="102" viewBox="0 0 102 102" fill="none" xmlns="http://www.w3.org/2000/svg">
<path d="M0 51C0 22.8335 22.8335 0 51 0C79.1665 0 102 22.8335 102 51C102 79.1665 79.1665 102 51 102C22.8335 102 0 79.1665 0 51Z" fill="#040404"/>
<g clip-path="url(#clip0_12181_12080)">
<path d="M38.8125 63.5938H31.0938C28.8501 63.5938 27.0312 61.7749 27.0312 59.5312V31.0938C27.0312 28.8501 28.8501 27.0312 31.0938 27.0312H70.9062C73.1499 27.0312 74.9688 28.8501 74.9688 31.0938V59.5312C74.9688 61.7749 73.1499 63.5938 70.9062 63.5938H63.1875M59.125 74.9688L51 67.6562L42.875 74.9688" stroke="white" stroke-width="4.0625" stroke-miterlimit="10" stroke-linecap="round" stroke-linejoin="round"/>
<path d="M34.75 39.2188C34.75 36.9751 36.5689 35.1562 38.8125 35.1562M38.8125 55.4688C36.5689 55.4688 34.75 53.6499 34.75 51.4062M67.25 51.4062C67.25 53.6499 65.4311 55.4688 63.1875 55.4688M63.1875 35.1562C65.4311 35.1562 67.25 36.9751 67.25 39.2188" stroke="white" stroke-width="4.0625" stroke-miterlimit="10" stroke-linecap="round" stroke-linejoin="round"/>
<path d="M51 67.6562C53.2437 67.6562 55.0625 65.8374 55.0625 63.5938C55.0625 61.3501 53.2437 59.5312 51 59.5312C48.7563 59.5312 46.9375 61.3501 46.9375 63.5938C46.9375 65.8374 48.7563 67.6562 51 67.6562Z" stroke="white" stroke-width="4.0625" stroke-miterlimit="10" stroke-linecap="round" stroke-linejoin="round"/>
<path d="M46.9375 51.4062H55.0625M42.875 43.2812H59.125" stroke="white" stroke-width="4.0625" stroke-miterlimit="10" stroke-linecap="round" stroke-linejoin="round"/>
</g>
<defs>
<clipPath id="clip0_12181_12080">
<rect width="52" height="52" fill="white" transform="translate(25 25)"/>
</clipPath>
</defs>
</svg>
