<svg width="102" height="102" viewBox="0 0 102 102" fill="none" xmlns="http://www.w3.org/2000/svg">
<path d="M0 51C0 22.8335 22.8335 0 51 0C79.1665 0 102 22.8335 102 51C102 79.1665 79.1665 102 51 102C22.8335 102 0 79.1665 0 51Z" fill="#040404"/>
<path d="M65.2188 55.4688V66.8438C65.2188 71.3311 61.5811 74.9688 57.0938 74.9688H36.7812C32.2939 74.9688 28.6562 71.3311 28.6562 66.8438V35.1562C28.6562 30.6689 32.2939 27.0312 36.7812 27.0312H49.8184M36.7812 39.2188H44.9062M36.7812 47.3438H44.9062" stroke="white" stroke-width="4.0625" stroke-miterlimit="10" stroke-linecap="round" stroke-linejoin="round"/>
<path d="M44.9062 62.7812L48.9688 66.8438L57.0938 58.7188M73.3438 31.0938V34.1813C73.3438 39.7469 70.2155 44.8656 65.2188 47.3438C60.222 44.8657 57.0938 39.7469 57.0938 34.1813V31.0938C57.0938 31.0938 60.7501 27.0312 65.2188 27.0312C69.6874 27.0312 73.3438 31.0938 73.3438 31.0938Z" stroke="white" stroke-width="4.0625" stroke-miterlimit="10" stroke-linecap="round" stroke-linejoin="round"/>
</svg>
