<svg width="56" height="56" viewBox="0 0 56 56" fill="none" xmlns="http://www.w3.org/2000/svg">
<path d="M0 28C0 12.536 12.536 0 28 0C43.464 0 56 12.536 56 28C56 43.464 43.464 56 28 56C12.536 56 0 43.464 0 28Z" fill="#FB4414"/>
<g clip-path="url(#clip0_12139_8147)">
<path d="M43.0571 25.4483V19.3233C43.0571 15.7996 40.2006 12.9431 36.6769 12.9431H19.3228C15.7991 12.9431 12.9426 15.7996 12.9426 19.3233V36.6774C12.9426 40.2011 15.7991 43.0576 19.3228 43.0576H25.703" stroke="white" stroke-width="2.55208" stroke-miterlimit="10" stroke-linecap="round" stroke-linejoin="round"/>
<path d="M24.7461 18.6855H31.2539" stroke="white" stroke-width="2.55208" stroke-miterlimit="10" stroke-linecap="round" stroke-linejoin="round"/>
<path d="M42.6245 38.2087C41.6054 41.0362 38.8988 43.0576 35.72 43.0576C31.6678 43.0576 28.3828 39.7726 28.3828 35.7204C28.3828 31.6681 31.6678 28.3832 35.72 28.3832C36.8131 28.3832 37.8504 28.6563 38.7825 29.085" stroke="white" stroke-width="2.55208" stroke-miterlimit="10" stroke-linecap="round" stroke-linejoin="round"/>
<path d="M33.4871 34.6361L35.2809 36.4726C35.4631 36.6588 35.6807 36.8066 35.9208 36.9076C36.1609 37.0085 36.4188 37.0605 36.6793 37.0605C36.9397 37.0605 37.1976 37.0085 37.4377 36.9076C37.6778 36.8066 37.8954 36.6588 38.0776 36.4726L43.0573 31.446" stroke="white" stroke-width="2.55208" stroke-miterlimit="10" stroke-linecap="round" stroke-linejoin="round"/>
</g>
<defs>
<clipPath id="clip0_12139_8147">
<rect width="32.6667" height="32.6667" fill="white" transform="translate(11.6667 11.667)"/>
</clipPath>
</defs>
</svg>
