<svg width="56" height="56" viewBox="0 0 56 56" fill="none" xmlns="http://www.w3.org/2000/svg">
<path d="M0 28C0 12.536 12.536 0 28 0C43.464 0 56 12.536 56 28C56 43.464 43.464 56 28 56C12.536 56 0 43.464 0 28Z" fill="#FB4414"/>
<g clip-path="url(#clip0_12139_8157)">
<path d="M42.75 33.9079V39C42.75 41.0711 41.0711 42.75 39 42.75H17C14.9289 42.75 13.25 41.0711 13.25 39V33.9079M20.75 30.25V32.75M35.25 30.25V32.75M23 18.25V15.75C23 14.3693 24.1193 13.25 25.5 13.25H30.5C31.8807 13.25 33 14.3693 33 15.75V18.25M37.75 30.25H18.25C15.4886 30.25 13.25 28.0114 13.25 25.25V20.75C13.25 19.3693 14.3693 18.25 15.75 18.25H40.25C41.6307 18.25 42.75 19.3693 42.75 20.75V25.25C42.75 28.0114 40.5114 30.25 37.75 30.25Z" stroke="white" stroke-width="2.5" stroke-miterlimit="10" stroke-linecap="round" stroke-linejoin="round"/>
</g>
<defs>
<clipPath id="clip0_12139_8157">
<rect width="32" height="32" fill="white" transform="translate(12 12)"/>
</clipPath>
</defs>
</svg>
