<svg width="56" height="56" viewBox="0 0 56 56" fill="none" xmlns="http://www.w3.org/2000/svg">
<path d="M0 28C0 12.536 12.536 0 28 0C43.464 0 56 12.536 56 28C56 43.464 43.464 56 28 56C12.536 56 0 43.464 0 28Z" fill="#FB4414"/>
<path d="M30.5 29.25C30.5 30.6307 29.3807 31.75 28 31.75C26.6193 31.75 25.5 30.6307 25.5 29.25C25.5 27.8693 26.6193 26.75 28 26.75C29.3807 26.75 30.5 27.8693 30.5 29.25Z" stroke="white" stroke-width="2.49999" stroke-miterlimit="10" stroke-linecap="round" stroke-linejoin="round"/>
<path d="M30.5 41.75H25.5C24.1193 41.75 23 40.6307 23 39.25C23 36.4886 25.2386 34.25 28 34.25C30.7614 34.25 33 36.4886 33 39.25C33 40.6307 31.8807 41.75 30.5 41.75Z" stroke="white" stroke-width="2.49999" stroke-miterlimit="10" stroke-linecap="round" stroke-linejoin="round"/>
<path d="M40.25 26.75C40.25 28.1307 39.1307 29.25 37.75 29.25C36.3693 29.25 35.25 28.1307 35.25 26.75C35.25 25.3693 36.3693 24.25 37.75 24.25C39.1307 24.25 40.25 25.3693 40.25 26.75Z" stroke="white" stroke-width="2.49999" stroke-miterlimit="10" stroke-linecap="round" stroke-linejoin="round"/>
<path d="M35.1193 32.4972C36.169 31.8465 37.4774 31.5736 38.8547 31.8684C41.1794 32.3659 42.75 34.5717 42.75 36.9491V36.75C42.75 38.1307 41.6307 39.25 40.25 39.25H33" stroke="white" stroke-width="2.49999" stroke-miterlimit="10" stroke-linecap="round" stroke-linejoin="round"/>
<path d="M20.75 26.75C20.75 28.1307 19.6307 29.25 18.25 29.25C16.8693 29.25 15.75 28.1307 15.75 26.75C15.75 25.3693 16.8693 24.25 18.25 24.25C19.6307 24.25 20.75 25.3693 20.75 26.75Z" stroke="white" stroke-width="2.49999" stroke-miterlimit="10" stroke-linecap="round" stroke-linejoin="round"/>
<path d="M23 39.25H15.75C14.3693 39.25 13.25 38.1307 13.25 36.75V36.9491C13.25 34.5718 14.8205 32.3659 17.1452 31.8684C18.5225 31.5736 19.831 31.8465 20.8807 32.4972" stroke="white" stroke-width="2.49999" stroke-miterlimit="10" stroke-linecap="round" stroke-linejoin="round"/>
<path d="M17.9999 16.7499L15.6223 15.9773M17.9999 16.7499L16.5305 18.7725M17.9999 16.7499L19.4694 18.7725M17.9999 16.7499L20.3776 15.9773M17.9999 16.7499V14.2499" stroke="white" stroke-width="2.49999" stroke-miterlimit="10" stroke-linecap="round" stroke-linejoin="round"/>
<path d="M27.9999 16.7499L25.6223 15.9773M27.9999 16.7499L26.5305 18.7725M27.9999 16.7499L29.4694 18.7725M27.9999 16.7499L30.3776 15.9773M27.9999 16.7499V14.2499" stroke="white" stroke-width="2.49999" stroke-miterlimit="10" stroke-linecap="round" stroke-linejoin="round"/>
<path d="M37.9999 16.7499L35.6223 15.9773M37.9999 16.7499L36.5305 18.7725M37.9999 16.7499L39.4694 18.7725M37.9999 16.7499L40.3776 15.9773M37.9999 16.7499V14.2499" stroke="white" stroke-width="2.49999" stroke-miterlimit="10" stroke-linecap="round" stroke-linejoin="round"/>
</svg>
