<svg width="32" height="32" viewBox="0 0 32 32" fill="none" xmlns="http://www.w3.org/2000/svg">
<g clip-path="url(#clip0_12218_1648)">
<path d="M13.75 16.25V28.25C13.75 29.6307 12.6307 30.75 11.25 30.75C9.86931 30.75 8.75 29.6307 8.75 28.25V16.25M28.25 8.75V16.25M21.25 8.75H16.25C16.25 10.1307 15.1307 11.25 13.75 11.25H8.75C7.36931 11.25 6.25 10.1307 6.25 8.75V6.25H3.75C2.375 6.25 1.25 7.375 1.25 8.75V3.75C1.25 2.36931 2.36931 1.25 3.75 1.25H13.75C15.1307 1.25 16.25 2.36931 16.25 3.75H21.25M21.25 1.25V11.25M28.25 30.75C26.8693 30.75 25.75 29.6307 25.75 28.25V16.25H30.75V28.25C30.75 29.6307 29.6307 30.75 28.25 30.75ZM30.75 8.75H25.75L27 1.25H29.5L30.75 8.75Z" stroke="white" stroke-width="2.5" stroke-miterlimit="10" stroke-linecap="round" stroke-linejoin="round"/>
</g>
<defs>
<clipPath id="clip0_12218_1648">
<rect width="32" height="32" fill="white"/>
</clipPath>
</defs>
</svg>
