<svg width="32" height="32" viewBox="0 0 32 32" fill="none" xmlns="http://www.w3.org/2000/svg">
<g clip-path="url(#clip0_12218_1345)">
<path d="M18.25 3.75C18.25 2.36931 19.3693 1.25 20.75 1.25C22.1307 1.25 23.25 2.36931 23.25 3.75M20.75 25.75C19.9574 24.9574 19.3287 24.0165 18.8997 22.9809C18.4708 21.9453 18.25 20.8354 18.25 19.7145V8.75H23.25V19.7145C23.25 21.9783 22.3507 24.1493 20.75 25.75Z" stroke="white" stroke-width="2.5" stroke-miterlimit="10" stroke-linecap="round" stroke-linejoin="round"/>
<path d="M1.25 28.25V11.25C1.25 9.86931 2.36931 8.75 3.75 8.75H6.25C7.63069 8.75 8.75 9.86931 8.75 11.25V23.25C8.75 24.6307 7.63069 25.75 6.25 25.75H3.75C2.36931 25.75 1.25 26.8693 1.25 28.25ZM1.25 28.25C1.25 29.6307 2.36931 30.75 3.75 30.75H28.25C29.6307 30.75 30.75 29.6307 30.75 28.25V15.75C30.75 14.3693 29.6307 13.25 28.25 13.25M18.25 13.25H8.75" stroke="white" stroke-width="2.5" stroke-miterlimit="10" stroke-linecap="round" stroke-linejoin="round"/>
</g>
<defs>
<clipPath id="clip0_12218_1345">
<rect width="32" height="32" fill="white"/>
</clipPath>
</defs>
</svg>
