<svg width="32" height="32" viewBox="0 0 32 32" fill="none" xmlns="http://www.w3.org/2000/svg">
<g clip-path="url(#clip0_12218_1350)">
<path d="M18.5 17.2501C18.5 18.6308 17.3807 19.7501 16 19.7501C14.6193 19.7501 13.5 18.6308 13.5 17.2501C13.5 15.8694 14.6193 14.7501 16 14.7501C17.3807 14.7501 18.5 15.8694 18.5 17.2501Z" stroke="white" stroke-width="2.49999" stroke-miterlimit="10" stroke-linecap="round" stroke-linejoin="round"/>
<path d="M18.5 29.7501H13.5C12.1193 29.7501 11 28.6308 11 27.2501C11 24.4887 13.2386 22.2501 16 22.2501C18.7614 22.2501 21 24.4887 21 27.2501C21 28.6308 19.8807 29.7501 18.5 29.7501Z" stroke="white" stroke-width="2.49999" stroke-miterlimit="10" stroke-linecap="round" stroke-linejoin="round"/>
<path d="M28.25 14.7501C28.25 16.1308 27.1307 17.2501 25.75 17.2501C24.3693 17.2501 23.25 16.1308 23.25 14.7501C23.25 13.3694 24.3693 12.2501 25.75 12.2501C27.1307 12.2501 28.25 13.3694 28.25 14.7501Z" stroke="white" stroke-width="2.49999" stroke-miterlimit="10" stroke-linecap="round" stroke-linejoin="round"/>
<path d="M23.1193 20.4973C24.169 19.8466 25.4774 19.5737 26.8547 19.8685C29.1794 20.366 30.75 22.5718 30.75 24.9492V24.7501C30.75 26.1308 29.6307 27.2501 28.25 27.2501H21" stroke="white" stroke-width="2.49999" stroke-miterlimit="10" stroke-linecap="round" stroke-linejoin="round"/>
<path d="M8.74999 14.7501C8.74999 16.1308 7.63068 17.2501 6.24999 17.2501C4.86931 17.2501 3.75 16.1308 3.75 14.7501C3.75 13.3694 4.86931 12.2501 6.24999 12.2501C7.63068 12.2501 8.74999 13.3694 8.74999 14.7501Z" stroke="white" stroke-width="2.49999" stroke-miterlimit="10" stroke-linecap="round" stroke-linejoin="round"/>
<path d="M11 27.2501H3.74999C2.36931 27.2501 1.25 26.1308 1.25 24.7501V24.9492C1.25 22.5719 2.8205 20.366 5.14524 19.8685C6.52255 19.5737 7.83098 19.8466 8.88067 20.4973" stroke="white" stroke-width="2.49999" stroke-miterlimit="10" stroke-linecap="round" stroke-linejoin="round"/>
<path d="M6.00018 4.75015L3.62256 3.97759M6.00018 4.75015L4.53074 6.77271M6.00018 4.75015L7.46961 6.77271M6.00018 4.75015L8.37779 3.97759M6.00018 4.75015V2.25016" stroke="white" stroke-width="2.49999" stroke-miterlimit="10" stroke-linecap="round" stroke-linejoin="round"/>
<path d="M16.0002 4.75015L13.6226 3.97759M16.0002 4.75015L14.5307 6.77271M16.0002 4.75015L17.4696 6.77271M16.0002 4.75015L18.3778 3.97759M16.0002 4.75015V2.25016" stroke="white" stroke-width="2.49999" stroke-miterlimit="10" stroke-linecap="round" stroke-linejoin="round"/>
<path d="M25.9997 4.75015L23.6221 3.97759M25.9997 4.75015L24.5303 6.77271M25.9997 4.75015L27.4691 6.77271M25.9997 4.75015L28.3773 3.97759M25.9997 4.75015V2.25016" stroke="white" stroke-width="2.49999" stroke-miterlimit="10" stroke-linecap="round" stroke-linejoin="round"/>
</g>
<defs>
<clipPath id="clip0_12218_1350">
<rect width="32" height="32" fill="white"/>
</clipPath>
</defs>
</svg>
