<svg width="40" height="40" viewBox="0 0 40 40" fill="none" xmlns="http://www.w3.org/2000/svg">
<path d="M8.49342 16.1816H21.4223C21.738 16.1816 21.9938 15.9257 21.9938 15.61V12.1047C21.9938 11.7891 21.738 11.5332 21.4223 11.5332H8.49342C8.17781 11.5332 7.92188 11.7891 7.92188 12.1047V15.61C7.92195 15.9257 8.17781 16.1816 8.49342 16.1816ZM15.5293 12.6763H20.8507V15.0386H15.5293V12.6763ZM9.06496 12.6763H14.3864V15.0386H9.06496V12.6763Z" fill="white"/>
<path d="M38.9805 34.3497H37.0887V23.2902H37.2136C37.9488 23.2902 38.5471 22.6919 38.5471 21.9567V20.4961C38.5471 19.7609 37.9488 19.1626 37.2136 19.1626H24.1498V10.1582C24.8696 10.1403 25.45 9.55049 25.45 8.8264V5.85451C25.45 5.11926 24.8518 4.52101 24.1165 4.52101H19.3132V3.3335C19.3132 2.59825 18.7149 2 17.9797 2H11.9358C11.2005 2 10.6023 2.59825 10.6023 3.3335V4.52108H5.79861C5.06328 4.52108 4.46503 5.11933 4.46503 5.85458V8.82647C4.46503 9.55056 5.04543 10.1404 5.76535 10.1583V34.3497H3.87938C3.39451 34.3497 3 34.7441 3 35.229V36.3306C3 36.8155 3.39451 37.21 3.87938 37.21H38.9805C39.4652 37.21 39.8598 36.8155 39.8598 36.3306V35.229C39.8598 34.7441 39.4652 34.3497 38.9805 34.3497ZM37.2135 20.3056C37.3167 20.3056 37.404 20.3929 37.404 20.4961V21.9567C37.404 22.0599 37.3167 22.1472 37.2135 22.1472H24.1498V20.3056H37.2135ZM31.2698 31.9095C29.8046 31.9095 28.5812 32.9615 28.3132 34.3496H24.1497V23.2902H35.9457V34.3497H34.2264C33.9585 32.9615 32.735 31.9095 31.2698 31.9095ZM33.0486 34.3497H29.4909C29.733 33.5981 30.4387 33.0527 31.2698 33.0527C32.1009 33.0526 32.8067 33.598 33.0486 34.3497ZM5.60804 8.8264V5.85451C5.60804 5.75127 5.6953 5.66402 5.79853 5.66402H11.1735C11.4891 5.66402 11.7451 5.40816 11.7451 5.09248V3.3335C11.7451 3.23027 11.8323 3.14301 11.9355 3.14301H17.9795C18.0827 3.14301 18.17 3.23027 18.17 3.3335V5.09262C18.17 5.40823 18.4258 5.66416 18.7415 5.66416H24.1163C24.2196 5.66416 24.3068 5.75142 24.3068 5.85465V8.82654C24.3068 8.92978 24.2196 9.01703 24.1163 9.01703H5.79861C5.69537 9.01689 5.60804 8.92964 5.60804 8.8264ZM22.0014 36.0669H4.14301V35.4926H22.0014V36.0669ZM12.1963 34.3496V30.5767H14.3859V34.3496H12.1963ZM15.529 34.3496V30.5767H17.7186V34.3496H15.529ZM23.0068 34.3497H18.8617V30.0051C18.8617 29.6895 18.6059 29.4336 18.2902 29.4336H11.6248C11.3092 29.4336 11.0533 29.6895 11.0533 30.0051V34.3496H6.90836V10.1599H23.0067L23.0068 34.3497ZM23.1444 36.0669V35.4926H38.7167V36.0669H23.1444Z" fill="white"/>
<path d="M8.49342 21.9589H21.4223C21.738 21.9589 21.9938 21.7031 21.9938 21.3874V17.8821C21.9938 17.5665 21.738 17.3105 21.4223 17.3105H8.49342C8.17781 17.3105 7.92188 17.5664 7.92188 17.8821V21.3874C7.92195 21.703 8.17781 21.9589 8.49342 21.9589ZM15.5293 18.4536H20.8507V20.8159H15.5293V18.4536ZM9.06496 18.4536H14.3864V20.8159H9.06496V18.4536Z" fill="white"/>
<path d="M13.1127 7.53591H13.5047V7.92783C13.5047 8.45308 13.9319 8.88035 14.4572 8.88035H15.4583C15.9836 8.88035 16.4108 8.45308 16.4108 7.92783V7.53591H16.8028C17.328 7.53591 17.7553 7.10864 17.7553 6.58338V5.58227C17.7553 5.05702 17.328 4.62975 16.8028 4.62975H16.4108V4.23768C16.4108 3.71243 15.9836 3.28516 15.4583 3.28516H14.4572C13.9319 3.28516 13.5047 3.71243 13.5047 4.23768V4.62975H13.1127C12.5874 4.62975 12.1602 5.05702 12.1602 5.58227V6.58338C12.1601 7.10856 12.5874 7.53591 13.1127 7.53591ZM13.3031 5.77276H14.0761C14.3917 5.77276 14.6476 5.5169 14.6476 5.20122V4.42817H15.2678V5.20122C15.2678 5.51683 15.5236 5.77276 15.8393 5.77276H16.6122V6.39289H15.8393C15.5237 6.39289 15.2678 6.64875 15.2678 6.96444V7.73734H14.6476V6.96436C14.6476 6.64875 14.3918 6.39282 14.0761 6.39282H13.3031V5.77276Z" fill="white"/>
<path d="M8.49342 27.7367H21.4223C21.738 27.7367 21.9938 27.4809 21.9938 27.1652V23.6599C21.9938 23.3443 21.738 23.0884 21.4223 23.0884H8.49342C8.17781 23.0884 7.92188 23.3442 7.92188 23.6599V27.1652C7.92195 27.4809 8.17781 27.7367 8.49342 27.7367ZM15.5293 24.2315H20.8507V26.5937H15.5293V24.2315ZM9.06496 24.2315H14.3864V26.5937H9.06496V24.2315Z" fill="white"/>
<path d="M34.9289 29.1056V25.6004C34.9289 25.2847 34.6731 25.0288 34.3573 25.0288H25.7376C25.4219 25.0288 25.166 25.2847 25.166 25.6004V29.1056C25.166 29.4212 25.4218 29.6772 25.7376 29.6772H34.3574C34.673 29.6772 34.9289 29.4212 34.9289 29.1056ZM29.4759 28.5342H26.309V26.1719H29.4759V28.5342ZM33.7859 28.5342H30.619V26.1719H33.7859V28.5342Z" fill="white"/>
</svg>
