<svg width="40" height="40" viewBox="0 0 40 40" fill="none" xmlns="http://www.w3.org/2000/svg">
<path d="M29.9922 22.815H26.6034C26.5859 22.8138 26.5722 22.805 26.5547 22.805C26.0372 22.805 25.6172 23.225 25.6172 23.7425C25.6172 23.745 25.6172 23.7475 25.6172 23.75C25.6172 25.13 24.4984 26.25 23.1172 26.25C21.7359 26.25 20.6172 25.1313 20.6172 23.75C20.6172 23.7475 20.6172 23.745 20.6172 23.7413C20.6172 23.2238 20.1972 22.8038 19.6797 22.8038C19.6622 22.8038 19.6484 22.8125 19.6309 22.8138H17.1847V21.1513C19.1647 20.7088 20.6222 18.9663 20.6222 16.8825C20.6222 14.7988 19.1647 13.0575 17.2134 12.62L17.1847 12.615V9.99625C17.1847 9.47875 16.7647 9.05875 16.2472 9.05875H2.49844C1.98094 9.05875 1.56094 9.47875 1.56094 9.99625V23.7163L1.55469 23.7463V37.4963C1.55469 38.0138 1.97469 38.4338 2.49219 38.4338L29.9909 38.4388C30.5084 38.4388 30.9284 38.0188 30.9284 37.5013V23.7513C30.9284 23.2338 30.5084 22.8138 29.9909 22.8138L29.9922 22.815ZM3.43719 10.935H15.3109V13.4475C15.3109 13.965 15.7309 14.385 16.2484 14.385C17.6297 14.385 18.7484 15.5038 18.7484 16.885C18.7484 18.2663 17.6297 19.385 16.2484 19.385C15.7309 19.385 15.3109 19.805 15.3109 20.3225V22.81H13.6472C13.2084 20.825 11.4647 19.3625 9.37844 19.3625C7.29219 19.3625 5.54844 20.825 5.11469 22.78L5.10969 22.8088H3.43719V10.935ZM3.43094 24.685H5.87719C5.89844 24.6863 5.91594 24.6975 5.93719 24.6975C6.45719 24.69 6.87594 24.2688 6.87969 23.7488C6.88344 22.3725 7.99969 21.2575 9.37719 21.2575C10.7559 21.2575 11.8747 22.375 11.8747 23.755C11.8747 23.7575 11.8747 23.7588 11.8747 23.7613C11.8747 24.2788 12.2947 24.6988 12.8122 24.6988C12.8334 24.6988 12.8509 24.6875 12.8722 24.6863H15.3072V26.3513C13.3272 26.795 11.8697 28.5388 11.8697 30.6213C11.8697 32.4238 12.9609 33.9725 14.5197 34.64L14.5484 34.6513C14.7622 34.7438 15.0159 34.825 15.2784 34.8838L15.3072 34.8888V36.5613H3.43219L3.43094 24.685ZM29.0547 36.565H17.1809V34.115C17.1822 34.0963 17.1922 34.08 17.1922 34.0613C17.1847 33.5413 16.7634 33.1225 16.2447 33.1188C14.8672 33.115 13.7522 31.9988 13.7522 30.6213C13.7522 29.2413 14.8709 28.1238 16.2497 28.1238C16.2522 28.1238 16.2534 28.1238 16.2559 28.1238C16.7734 28.1238 17.1934 27.7038 17.1934 27.1863C17.1934 27.1675 17.1834 27.1513 17.1822 27.1325V24.6913H18.8547C19.3009 26.6663 21.0409 28.1188 23.1197 28.1188C25.1984 28.1188 26.9384 26.6663 27.3784 24.72L27.3834 24.6913H29.0559L29.0547 36.565ZM37.4922 1.5625H23.7447C23.2272 1.5625 22.8072 1.9825 22.8072 2.5V5.8775C22.8059 5.89875 22.7947 5.91625 22.7947 5.9375C22.7947 6.455 23.2147 6.875 23.7322 6.875C25.1134 6.875 26.2322 7.99375 26.2322 9.375C26.2322 10.7563 25.1134 11.875 23.7322 11.875C23.2147 11.875 22.7947 12.295 22.7947 12.8125C22.7947 12.8338 22.8059 12.8513 22.8072 12.8725V16.25C22.8072 16.7675 23.2272 17.1875 23.7447 17.1875H26.3397C26.7822 19.1675 28.5247 20.625 30.6084 20.625C32.6922 20.625 34.4334 19.1675 34.8709 17.2163L34.8759 17.1875H37.4922C38.0097 17.1875 38.4297 16.7675 38.4297 16.25V2.5C38.4297 1.9825 38.0097 1.5625 37.4922 1.5625ZM36.5547 15.3125H34.0447C33.5272 15.3125 33.1072 15.7325 33.1072 16.25C33.1072 17.6313 31.9884 18.75 30.6072 18.75C29.2259 18.75 28.1072 17.6313 28.1072 16.25C28.1072 15.7325 27.6872 15.3125 27.1697 15.3125H24.6822V13.64C26.6559 13.1925 28.1072 11.4538 28.1072 9.375C28.1072 7.29625 26.6559 5.5575 24.7109 5.11625L24.6822 5.11125V3.43875H36.5547V15.3125Z" fill="white"/>
</svg>
