<svg width="40" height="40" viewBox="0 0 40 40" fill="none" xmlns="http://www.w3.org/2000/svg">
<path d="M38.4833 26.9769L34.8998 24.5881V17.8372C34.8998 17.4804 34.6108 17.1921 34.2547 17.1921H31.6743V14.6117C31.6743 14.255 31.3853 13.9666 31.0292 13.9666H25.8324C25.5401 11.1798 23.3778 8.98906 20.7077 8.82327V7.51566H24.5783C24.9344 7.51566 25.2234 7.2273 25.2234 6.87057V3.64509C25.2234 3.28836 24.9344 3 24.5783 3H20.7077H20.0626H19.4175V3.64509V6.87057V8.90197C17.0507 9.35095 15.2064 11.4082 14.938 13.9666H9.74113C9.38504 13.9666 9.09604 14.255 9.09604 14.6117V17.1921H6.51566C6.15957 17.1921 5.87057 17.4804 5.87057 17.8372V24.5881L2.28707 26.9769C2.10773 27.0969 2 27.2981 2 27.5136V36.5449C2 36.9016 2.289 37.19 2.64509 37.19H6.51566H10.3862H12.9666H16.1921H18.7725H21.9979H24.5783H27.8038H30.3841H34.2547H38.1253C38.4814 37.19 38.7704 36.9016 38.7704 36.5449V27.5136C38.7704 27.2981 38.6626 27.0969 38.4833 26.9769ZM20.7077 4.29019H23.9332V6.22547H20.7077V4.29019ZM20.3852 10.096C22.4934 10.096 24.2383 11.7823 24.5306 13.9666H16.2398C16.532 11.7823 18.277 10.096 20.3852 10.096ZM10.3862 15.2568H30.3841V17.1921H10.3862V15.2568ZM3.29019 27.8587L5.87057 26.1382V35.8998H3.29019V27.8587ZM7.16075 24.9332V18.4823H9.74113H31.0292H33.6096V24.9332V35.8998H31.0292V26.8685C31.0292 26.5118 30.7402 26.2234 30.3841 26.2234H27.8038C27.4477 26.2234 27.1587 26.5118 27.1587 26.8685V35.8998H25.2234V26.8685C25.2234 26.5118 24.9344 26.2234 24.5783 26.2234H21.9979C21.6418 26.2234 21.3528 26.5118 21.3528 26.8685V35.8998H19.4175V26.8685C19.4175 26.5118 19.1285 26.2234 18.7725 26.2234H16.1921C15.836 26.2234 15.547 26.5118 15.547 26.8685V35.8998H13.6117V26.8685C13.6117 26.5118 13.3227 26.2234 12.9666 26.2234H10.3862C10.0301 26.2234 9.74113 26.5118 9.74113 26.8685V35.8998H7.16075V24.9332ZM11.0313 35.8998V27.5136H12.3215V35.8998H11.0313ZM16.8372 35.8998V27.5136H18.1274V35.8998H16.8372ZM22.643 35.8998V27.5136H23.9332V35.8998H22.643ZM28.4489 35.8998V27.5136H29.7391V35.8998H28.4489ZM37.4802 35.8998H34.8998V26.1382L37.4802 27.8587V35.8998Z" fill="white"/>
<path d="M10.3863 24.2885H12.9667C13.3228 24.2885 13.6118 24.0002 13.6118 23.6434V21.0631C13.6118 20.7063 13.3228 20.418 12.9667 20.418H10.3863C10.0302 20.418 9.74121 20.7063 9.74121 21.0631V23.6434C9.74121 24.0002 10.0302 24.2885 10.3863 24.2885ZM11.0314 21.7082H12.3216V22.9983H11.0314V21.7082Z" fill="white"/>
<path d="M16.192 24.2885H18.7723C19.1284 24.2885 19.4174 24.0002 19.4174 23.6434V21.0631C19.4174 20.7063 19.1284 20.418 18.7723 20.418H16.192C15.8359 20.418 15.5469 20.7063 15.5469 21.0631V23.6434C15.5469 24.0002 15.8359 24.2885 16.192 24.2885ZM16.8371 21.7082H18.1273V22.9983H16.8371V21.7082Z" fill="white"/>
<path d="M21.9976 24.2885H24.578C24.9341 24.2885 25.2231 24.0002 25.2231 23.6434V21.0631C25.2231 20.7063 24.9341 20.418 24.578 20.418H21.9976C21.6415 20.418 21.3525 20.7063 21.3525 21.0631V23.6434C21.3525 24.0002 21.6415 24.2885 21.9976 24.2885ZM22.6427 21.7082H23.9329V22.9983H22.6427V21.7082Z" fill="white"/>
<path d="M27.8033 24.2885H30.3837C30.7398 24.2885 31.0288 24.0002 31.0288 23.6434V21.0631C31.0288 20.7063 30.7398 20.418 30.3837 20.418H27.8033C27.4472 20.418 27.1582 20.7063 27.1582 21.0631V23.6434C27.1582 24.0002 27.4472 24.2885 27.8033 24.2885ZM28.4484 21.7082H29.7386V22.9983H28.4484V21.7082Z" fill="white"/>
</svg>
