<svg width="40" height="40" viewBox="0 0 40 40" fill="none" xmlns="http://www.w3.org/2000/svg">
<path d="M20.5 29.25V34.5H25.75V29.25H20.5ZM24 32.75H22.25V31H24V32.75Z" fill="white"/>
<path d="M27.5 29.25V34.5H32.75V29.25H27.5ZM31 32.75H29.25V31H31V32.75Z" fill="white"/>
<path d="M37.125 36.25H36.25V22.25H34.5V20.5H32.75V22.25H31V25.75H29.25V22.25V18.75H27.5V22.25H25.75V17H24V22.25V25.75H22.25V22.25H20.5V18.75H18.75V22.25H17V36.25H13.5V17H15.25C16.2166 17 17 16.2166 17 15.25V13.5H32.75V18.75H34.5V13.5H36.25C37.0614 13.5 37.7667 12.9418 37.9533 12.1519C38.14 11.3621 37.7585 10.5477 37.0328 10.1849L33.5328 8.43491C33.2896 8.31357 33.0218 8.25 32.7499 8.25H13.6913L11.5651 3.96715C11.2641 3.36518 10.6516 3 10.0006 3C9.86704 3 9.73231 3.01518 9.59812 3.04724C8.80822 3.23331 8.25 3.93857 8.25 4.75V8.25H4.75C3.7834 8.25 3 9.0334 3 10V11.75C3 12.7166 3.7834 13.5 4.75 13.5H8.25V15.25V36.25H3.875C3.39143 36.25 3 36.6414 3 37.125C3 37.6086 3.39143 38 3.875 38H37.125C37.6086 38 38 37.6086 38 37.125C38 36.6414 37.6086 36.25 37.125 36.25ZM8.25 11.75H4.75V10H8.25V11.75ZM32.75 10L36.25 11.75H17C17 11.2856 16.8156 10.8406 16.4872 10.5128L15.9751 10H32.75ZM10 4.75L11.75 8.25H10V4.75ZM10 10H13.5L15.25 11.75V15.25H10V10ZM11.75 36.25H10V17H11.75V36.25ZM34.5 36.25H18.75V24H20.5V27.5H25.75V24H27.5V27.5H32.75V24H34.5V36.25Z" fill="white"/>
</svg>
