<svg width="40" height="40" viewBox="0 0 40 40" fill="none" xmlns="http://www.w3.org/2000/svg">
<path d="M10.6133 23.7581H19.227V17.6055H10.6133V23.7581ZM11.8438 22.5276V20.6818H17.9965V22.5276H11.8438ZM17.9965 18.836V19.4513H11.8438V18.836H17.9965Z" fill="white"/>
<path d="M10.6133 26.2197V33.6029H19.227V26.2197H10.6133ZM14.3049 27.4503V29.2961H11.8438V27.4503H14.3049ZM11.8438 30.5266H14.3049V32.3724H11.8438V30.5266ZM15.5354 32.3724V30.5266H17.9965V32.3724H15.5354ZM17.9965 29.2961H15.5354V27.4503H17.9965V29.2961Z" fill="white"/>
<path d="M21.6885 23.7581H30.3022V17.6055H21.6885V23.7581ZM22.919 22.5276V21.9123H29.0717V22.5276H22.919ZM29.0717 18.836V20.6818H22.919V18.836H29.0717Z" fill="white"/>
<path d="M38.3007 31.1415C37.9605 31.1415 37.6854 31.4171 37.6854 31.7567V32.372H37.0702V31.7567C37.0702 31.4171 36.7951 31.1415 36.4549 31.1415C36.1147 31.1415 35.8396 31.4171 35.8396 31.7567V32.372H35.2244V19.9412C35.5449 20.0851 35.8845 20.1645 36.2248 20.1645C36.885 20.1645 37.5408 19.8962 38.0257 19.3745C38.4933 18.8712 38.7302 18.1901 38.676 17.5053C38.6213 16.8211 38.2798 16.1856 37.7396 15.7623L22.1327 3.55478L20.458 2L18.8232 3.52094L3.177 15.7623C2.63619 16.1856 2.29471 16.8211 2.24057 17.5053C2.18643 18.1901 2.4233 18.8712 2.89091 19.3745C3.62553 20.1657 4.74962 20.3651 5.69221 19.9418V32.3726H5.07633V31.7573C5.07633 31.4177 4.80131 31.1421 4.46106 31.1421C4.12082 31.1421 3.8458 31.4177 3.8458 31.7573V32.3726H3.23053V31.7573C3.23053 31.4177 2.95551 31.1421 2.61527 31.1421C2.27502 31.1421 2 31.4177 2 31.7573V37.2947C2 37.6344 2.27502 37.91 2.61527 37.91C2.95551 37.91 3.23053 37.6344 3.23053 37.2947V36.6795H3.8458V37.2947C3.8458 37.6344 4.12082 37.91 4.46106 37.91C4.80131 37.91 5.07633 37.6344 5.07633 37.2947V36.6795H5.6916V37.91H21.6885H30.3022H35.2244V36.6795H35.8396V37.2947C35.8396 37.6344 36.1147 37.91 36.4549 37.91C36.7951 37.91 37.0702 37.6344 37.0702 37.2947V36.6795H37.6854V37.2947C37.6854 37.6344 37.9605 37.91 38.3007 37.91C38.6409 37.91 38.916 37.6344 38.916 37.2947V31.7573C38.916 31.4171 38.6409 31.1415 38.3007 31.1415ZM3.79165 18.5365C3.55478 18.2812 3.43972 17.9495 3.46741 17.6025C3.4951 17.2555 3.6606 16.946 3.93563 16.7313L19.6212 4.45676L20.4586 3.67845L21.3347 4.48998L36.981 16.7313C37.2554 16.946 37.4215 17.2555 37.4492 17.6025C37.4769 17.9495 37.3612 18.2818 37.1249 18.5365C36.6893 19.0053 35.9799 19.0644 35.4723 18.6737L35.2244 18.483L20.458 7.10056L5.93155 18.2984L5.93093 18.299L5.44426 18.6737C4.93605 19.0644 4.22726 19.0053 3.79165 18.5365ZM3.23053 35.4483V33.6025H3.8458V35.4483H3.23053ZM5.07633 35.4483V33.6025H5.6916V35.4483H5.07633ZM22.919 36.6789V27.4499H29.0717V36.6789H22.919ZM33.9938 36.6789H30.3022V26.2193H21.6885V36.6789H6.92213V19.0878L20.458 8.65349L33.9938 19.0878V36.6789ZM35.2244 35.4483V33.6025H35.8396V35.4483H35.2244ZM37.0702 35.4483V33.6025H37.6854V35.4483H37.0702Z" fill="white"/>
</svg>
