<svg width="40" height="40" viewBox="0 0 40 40" fill="none" xmlns="http://www.w3.org/2000/svg">
<path d="M9.21425 25.5972H6.95454C6.64254 25.5972 6.38965 25.8501 6.38965 26.1621V28.4217C6.38965 28.7337 6.64254 28.9866 6.95454 28.9866H9.21419C9.52619 28.9866 9.77908 28.7337 9.77908 28.4217V26.1621C9.77915 25.8501 9.52619 25.5972 9.21425 25.5972ZM8.64929 27.8568H7.5195V26.727H8.64936L8.64929 27.8568Z" fill="white"/>
<path d="M9.21425 30.1162H6.95454C6.64254 30.1162 6.38965 30.3692 6.38965 30.6811C6.38965 30.993 6.64254 31.246 6.95454 31.246H9.21419C9.52619 31.246 9.77908 30.9931 9.77908 30.6811C9.77908 30.3691 9.52619 30.1162 9.21425 30.1162Z" fill="white"/>
<path d="M9.21425 32.3755H6.95454C6.64254 32.3755 6.38965 32.6284 6.38965 32.9404C6.38965 33.2524 6.64254 33.5053 6.95454 33.5053H9.21419C9.52619 33.5053 9.77908 33.2524 9.77908 32.9404C9.77908 32.6284 9.52619 32.3755 9.21425 32.3755Z" fill="white"/>
<path d="M14.8626 25.5972H12.603C12.291 25.5972 12.0381 25.8501 12.0381 26.1621V28.4217C12.0381 28.7337 12.291 28.9866 12.603 28.9866H14.8626C15.1746 28.9866 15.4275 28.7337 15.4275 28.4217V26.1621C15.4275 25.8501 15.1746 25.5972 14.8626 25.5972ZM14.2977 27.8568H13.1679V26.727H14.2977V27.8568Z" fill="white"/>
<path d="M14.8626 30.1162H12.603C12.291 30.1162 12.0381 30.3692 12.0381 30.6811C12.0381 30.993 12.291 31.246 12.603 31.246H14.8626C15.1746 31.246 15.4275 30.9931 15.4275 30.6811C15.4275 30.3691 15.1746 30.1162 14.8626 30.1162Z" fill="white"/>
<path d="M14.8626 32.3755H12.603C12.291 32.3755 12.0381 32.6284 12.0381 32.9404C12.0381 33.2524 12.291 33.5053 12.603 33.5053H14.8626C15.1746 33.5053 15.4275 33.2524 15.4275 32.9404C15.4275 32.6284 15.1746 32.3755 14.8626 32.3755Z" fill="white"/>
<path d="M20.512 25.5972H18.2524C17.9404 25.5972 17.6875 25.8501 17.6875 26.1621V28.4217C17.6875 28.7337 17.9404 28.9866 18.2524 28.9866H20.512C20.824 28.9866 21.0769 28.7337 21.0769 28.4217V26.1621C21.077 25.8501 20.824 25.5972 20.512 25.5972ZM19.9471 27.8568H18.8173V26.727H19.9471V27.8568Z" fill="white"/>
<path d="M20.512 30.1162H18.2524C17.9404 30.1162 17.6875 30.3692 17.6875 30.6811C17.6875 30.993 17.9404 31.246 18.2524 31.246H20.512C20.824 31.246 21.0769 30.9931 21.0769 30.6811C21.0769 30.3691 20.824 30.1162 20.512 30.1162Z" fill="white"/>
<path d="M20.512 32.3755H18.2524C17.9404 32.3755 17.6875 32.6284 17.6875 32.9404C17.6875 33.2524 17.9404 33.5053 18.2524 33.5053H20.512C20.824 33.5053 21.0769 33.2524 21.0769 32.9404C21.0769 32.6284 20.824 32.3755 20.512 32.3755Z" fill="white"/>
<path d="M6.95454 8.08425C7.26655 8.08425 7.51944 7.83136 7.51944 7.51935C7.51944 6.89925 8.02919 6.3895 8.64929 6.3895H10.9089C11.8423 6.3895 12.6037 5.62812 12.6037 4.69475C12.6037 3.76138 11.8424 3 10.9089 3H8.64929C8.33729 3 8.0844 3.25289 8.0844 3.56489C8.0844 3.8769 8.33729 4.12979 8.64929 4.12979H10.9089C11.2184 4.12979 11.4738 4.38526 11.4738 4.69468C11.4738 5.00411 11.2184 5.25958 10.9089 5.25958H8.64929C7.40524 5.25964 6.38965 6.27517 6.38965 7.51928C6.38965 7.83129 6.6426 8.08425 6.95454 8.08425Z" fill="white"/>
<path d="M15.9926 8.08425C16.3046 8.08425 16.5575 7.83136 16.5575 7.51935C16.5575 6.89925 17.0673 6.3895 17.6874 6.3895H19.3821C20.3155 6.3895 21.0769 5.62812 21.0769 4.69475C21.0769 3.76138 20.3155 3 19.3821 3H17.6874C17.3754 3 17.1225 3.25289 17.1225 3.56489C17.1225 3.8769 17.3754 4.12979 17.6874 4.12979H19.3821C19.6915 4.12979 19.947 4.38526 19.947 4.69468C19.947 5.00411 19.6915 5.25958 19.3821 5.25958H17.6874C16.4433 5.25958 15.4277 6.27517 15.4277 7.51922C15.4277 7.83129 15.6806 8.08425 15.9926 8.08425Z" fill="white"/>
<path d="M30.1165 13.7329H27.8569C27.5449 13.7329 27.292 13.9859 27.292 14.2978V16.5574C27.292 16.8695 27.5449 17.1223 27.8569 17.1223H30.1165C30.4285 17.1223 30.6814 16.8695 30.6814 16.5574V14.2978C30.6814 13.9859 30.4285 13.7329 30.1165 13.7329ZM29.5516 15.9926H28.4218V14.8627H29.5516V15.9926Z" fill="white"/>
<path d="M30.1165 18.2534H27.8569C27.5449 18.2534 27.292 18.5063 27.292 18.8183C27.292 19.1303 27.5449 19.3832 27.8569 19.3832H30.1165C30.4285 19.3832 30.6814 19.1303 30.6814 18.8183C30.6814 18.5063 30.4285 18.2534 30.1165 18.2534Z" fill="white"/>
<path d="M30.1165 21.0771H27.8569C27.5449 21.0771 27.292 21.33 27.292 21.642V23.9018C27.292 24.2138 27.5449 24.4666 27.8569 24.4666H30.1165C30.4285 24.4666 30.6814 24.2138 30.6814 23.9018V21.6421C30.6814 21.3301 30.4285 21.0771 30.1165 21.0771ZM29.5516 23.3369H28.4218V22.207H29.5516V23.3369Z" fill="white"/>
<path d="M30.1165 25.5972H27.8569C27.5449 25.5972 27.292 25.8501 27.292 26.1621C27.292 26.4741 27.5449 26.727 27.8569 26.727H30.1165C30.4285 26.727 30.6814 26.474 30.6814 26.1621C30.6814 25.8501 30.4285 25.5972 30.1165 25.5972Z" fill="white"/>
<path d="M30.1165 28.4214H27.8569C27.5449 28.4214 27.292 28.6743 27.292 28.9863V31.2459C27.292 31.5579 27.5449 31.8108 27.8569 31.8108H30.1165C30.4285 31.8108 30.6814 31.5579 30.6814 31.2459V28.9863C30.6814 28.6743 30.4285 28.4214 30.1165 28.4214ZM29.5516 30.681H28.4218V29.5512H29.5516V30.681Z" fill="white"/>
<path d="M30.1165 32.9399H27.8569C27.5449 32.9399 27.292 33.1928 27.292 33.5048C27.292 33.8168 27.5449 34.0697 27.8569 34.0697H30.1165C30.4285 34.0697 30.6814 33.8168 30.6814 33.5048C30.6814 33.1928 30.4285 32.9399 30.1165 32.9399Z" fill="white"/>
<path d="M36.3301 22.7718H34.0704V12.6033H35.2002C35.5122 12.6033 35.7651 12.3504 35.7651 12.0384V9.77876C35.7651 9.46676 35.5122 9.21387 35.2002 9.21387H22.7721C22.4601 9.21387 22.2072 9.46682 22.2072 9.77876V12.0384C22.2072 12.3504 22.4601 12.6033 22.7721 12.6033H23.9019V22.7718H18.2527V12.6033H18.8176C19.1296 12.6033 19.3825 12.3504 19.3825 12.0384V9.77876C19.3825 9.46676 19.1296 9.21387 18.8176 9.21387H13.1685C12.8565 9.21387 12.6036 9.46682 12.6036 9.77876V12.0384C12.6036 12.3504 12.8566 12.6033 13.1685 12.6033H13.7334V22.7718H9.2141V12.6033H9.77899C10.091 12.6033 10.3439 12.3504 10.3439 12.0384V9.77876C10.3439 9.46676 10.091 9.21387 9.77899 9.21387H4.12985C3.81785 9.21387 3.56496 9.46682 3.56496 9.77876V12.0384C3.56496 12.3504 3.81785 12.6033 4.12985 12.6033H4.69475V22.7718H3.56489C3.25289 22.7718 3 23.0247 3 23.3367V35.7649C3 36.0769 3.25289 36.3298 3.56489 36.3298H24.4668H33.5055H36.3301C36.6421 36.3298 36.895 36.0769 36.895 35.7649V23.3367C36.895 23.0247 36.6421 22.7718 36.3301 22.7718ZM23.337 10.3437H34.6353V11.4735H33.5055H24.4668H23.337V10.3437ZM13.7334 10.3437H18.2527V11.4735H17.6878H14.2983H13.7334V10.3437H13.7334ZM14.8632 12.6033H17.1229V22.7718H14.8632V12.6033ZM4.69475 10.3437H9.2141V11.4735H8.64921H5.25971H4.69475V10.3437ZM5.8246 12.6033H8.08425V22.7718H5.8246V12.6033ZM4.12985 23.9016H5.25971H8.64921H14.2983H17.6878H23.9019V35.2H4.12985V23.9016ZM25.0317 23.3367V12.6033H32.9406V23.3367V35.1999H25.0317V23.3367ZM35.7651 35.2H34.0704V23.9016H35.7651V35.2Z" fill="white"/>
</svg>
