<svg width="193" height="42" viewBox="0 0 193 42" fill="none" xmlns="http://www.w3.org/2000/svg">
<path d="M47.9006 37.419V8.09064H61.662C63.6648 8.09064 65.4577 8.25358 67.0406 8.57945C68.6234 8.87569 69.9802 9.34969 71.1108 10.0014C72.2414 10.6235 73.0975 11.4382 73.679 12.4455C74.2927 13.4231 74.5996 14.5932 74.5996 15.956C74.5996 17.1113 74.325 18.1186 73.7759 18.9777C73.259 19.8368 72.4353 20.533 71.3046 21.0662C70.174 21.5995 68.6719 21.955 66.7983 22.1327V22.8881C69.8994 23.0659 72.193 23.7473 73.679 24.9322C75.1649 26.1172 75.9079 27.717 75.9079 29.7314C75.9079 31.4497 75.4072 32.8716 74.4058 33.9974C73.4044 35.1231 71.9346 35.9822 69.9963 36.5747C68.0904 37.1376 65.7161 37.419 62.8734 37.419H47.9006ZM55.3143 31.7311H62.5826C64.5209 31.7311 65.9584 31.4793 66.8952 30.9757C67.832 30.4424 68.3004 29.6129 68.3004 28.4872C68.3004 27.243 67.7351 26.3098 66.6045 25.6877C65.4738 25.0656 63.7617 24.7545 61.4682 24.7545H55.3143V31.7311ZM55.3143 20.3997H60.4022C62.6634 20.3997 64.327 20.1182 65.3931 19.5554C66.4591 18.9629 66.9921 18.089 66.9921 16.9336C66.9921 15.8079 66.4914 14.9932 65.49 14.4896C64.5209 13.9563 63.0511 13.6897 61.0805 13.6897H55.3143V20.3997Z" fill="white"/>
<path d="M81.0166 37.419V13.9563H88.8179V37.419H81.0166ZM84.9414 10.7124C83.4555 10.7124 82.3087 10.431 81.5011 9.86812C80.7258 9.27563 80.3382 8.43133 80.3382 7.33521C80.3382 6.2391 80.7258 5.40961 81.5011 4.84675C82.3087 4.25425 83.4555 3.95801 84.9414 3.95801C86.4597 3.95801 87.6065 4.25425 88.3818 4.84675C89.1894 5.40961 89.5932 6.2391 89.5932 7.33521C89.5932 8.43133 89.1894 9.27563 88.3818 9.86812C87.6065 10.431 86.4597 10.7124 84.9414 10.7124Z" fill="white"/>
<path d="M94.7866 37.419V5.46886H102.443V37.419H94.7866Z" fill="white"/>
<path d="M108.462 37.419V5.42443H116.118V23.0659C117.055 22.4438 117.927 21.7772 118.735 21.0662C119.575 20.3552 120.334 19.6146 121.012 18.8444C121.69 18.0741 122.304 17.2891 122.853 16.4892C123.435 15.6597 123.919 14.8154 124.307 13.9563H133.271C132.851 15.1117 132.27 16.267 131.527 17.4224C130.784 18.5481 129.879 19.5998 128.813 20.5774C127.747 21.5254 126.487 22.3401 125.034 23.0215C123.58 23.7028 121.917 24.1768 120.043 24.4434V25.1989C122.401 24.7841 124.323 24.7841 125.809 25.1989C127.295 25.584 128.49 26.2209 129.395 27.1097C130.299 27.9984 130.978 29.0353 131.43 30.2202C131.915 31.3756 132.318 32.531 132.641 33.6863L133.659 37.419H125.179L124.695 35.1527C124.404 33.7308 124.032 32.5013 123.58 31.4645C123.16 30.4276 122.546 29.6277 121.739 29.0649C120.964 28.4724 119.817 28.1761 118.299 28.1761H116.118V37.419H108.462Z" fill="white"/>
<path d="M149.055 38.0411C146.438 38.0411 144.128 37.582 142.125 36.6636C140.155 35.7452 138.604 34.3677 137.474 32.531C136.375 30.6942 135.826 28.3983 135.826 25.6432C135.826 22.8881 136.375 20.607 137.474 18.7999C138.604 16.9632 140.171 15.6005 142.174 14.7117C144.177 13.7934 146.47 13.3342 149.055 13.3342C151.671 13.3342 153.981 13.7934 155.984 14.7117C157.986 15.6301 159.537 17.0077 160.635 18.8444C161.766 20.6515 162.331 22.9326 162.331 25.6877C162.331 28.502 161.75 30.8275 160.587 32.6643C159.424 34.501 157.841 35.8637 155.838 36.7525C153.835 37.6116 151.574 38.0411 149.055 38.0411ZM149.297 32.842C150.46 32.842 151.413 32.605 152.156 32.131C152.931 31.6274 153.512 30.872 153.9 29.8647C154.288 28.8575 154.482 27.6133 154.482 26.132C154.482 24.5619 154.272 23.2436 153.852 22.1772C153.432 21.081 152.818 20.2516 152.01 19.6887C151.203 19.0962 150.153 18.7999 148.861 18.7999C147.73 18.7999 146.777 19.0518 146.002 19.5554C145.227 20.0294 144.645 20.77 144.257 21.7772C143.87 22.7845 143.676 24.0435 143.676 25.5544C143.676 27.9836 144.16 29.8055 145.13 31.0201C146.099 32.2347 147.488 32.842 149.297 32.842Z" fill="white"/>
<path d="M166.902 37.419V13.9563H173.153L173.25 20.9329H174.219C174.639 19.2443 175.236 17.8371 176.012 16.7114C176.787 15.5857 177.772 14.7414 178.967 14.1785C180.163 13.6156 181.568 13.3342 183.183 13.3342C186.187 13.3342 188.465 14.297 190.015 16.2226C191.566 18.1186 192.341 21.1699 192.341 25.3766V37.419H184.491V26.1765C184.491 23.7473 184.12 21.9846 183.377 20.8885C182.634 19.7924 181.519 19.2443 180.033 19.2443C178.838 19.2443 177.837 19.585 177.029 20.2664C176.254 20.9477 175.672 21.8661 175.285 23.0215C174.897 24.1472 174.703 25.4211 174.703 26.843V37.419H166.902Z" fill="white"/>
<g clip-path="url(#clip0_12563_4448)">
<path fill-rule="evenodd" clip-rule="evenodd" d="M36.3435 37.3536V39.5101L17.0577 29.0148L10.6392 32.5132V30.3476L17.0577 26.8584L36.3435 37.3536ZM35.6673 37.7053L17.7439 27.9505V28.6631L35.6673 38.418V37.7053Z" fill="white"/>
<path d="M17.4614 34.3734H19.0761V32.8926H17.4614V34.3734Z" fill="white"/>
<path d="M16.6943 34.3734V32.8926H15.0796V34.3734H16.6943Z" fill="white"/>
<path d="M17.4614 35.0674V36.5574H19.0761V35.0674H17.4614Z" fill="white"/>
<path d="M16.6943 35.0674H15.0796V36.5574H16.6943V35.0674Z" fill="white"/>
<path d="M11.5979 19.0002V10.791L10.6392 11.3186V19.537L10.6694 19.5185L11.5979 19.0002Z" fill="white"/>
<path d="M13.2327 18.1032V9.88477L12.2739 10.4216V18.6308L12.3042 18.6123L13.2327 18.1032Z" fill="white"/>
<path d="M14.8677 17.2048V8.98633L13.9089 9.51387V17.7323L13.9392 17.7138L14.8677 17.2048Z" fill="white"/>
<path d="M16.5024 16.2986V8.08008L15.5437 8.61687V16.8261L15.574 16.8076L16.5024 16.2986Z" fill="white"/>
<path d="M26.7056 4.3778L36.3435 9.55137V7.82067L26.7056 2.49902L17.0577 7.82067V20.389L14.1714 18.7972L10.6392 20.75V28.987L17.2797 25.3682L18.4806 26.0254V8.91277L19.7926 8.19088V26.738L21.2156 27.5062V7.4042L22.6789 6.59901V28.3021L24.1019 29.0795V5.81233L25.5652 5.00714V29.8755L36.3435 35.7431V34.2438L32.3874 32.1152V31.7542L26.7056 28.7001V27.9041L36.3435 33.0777V31.3007L32.3874 29.1813V28.8111L26.7056 25.757V24.961L36.3435 30.1346V28.3576L32.3874 26.2382V25.868L26.7056 22.8139V22.0179L36.3435 27.1915V25.4145L32.3874 23.2951V22.9249L26.7056 19.88V19.0748L36.3435 24.2484V22.4807L32.3874 20.352V19.9911L26.7056 16.9369V16.141L36.3435 21.3145V19.5376L32.3874 17.4182V17.048L26.7056 13.9938V13.1979L36.3435 18.3714V16.5945L32.3874 14.4751V14.1049L26.7056 11.0599V10.2548L36.3435 15.4283V13.6606L32.3874 11.5319V11.171L26.7056 8.11684V7.31165L36.3435 12.4945V10.7175L32.3874 8.5981V8.2279L26.7056 5.17373V4.3778Z" fill="white"/>
</g>
<defs>
<clipPath id="clip0_12563_4448">
<rect width="25.8355" height="37.1127" fill="white" transform="translate(10.5681 2.44336)"/>
</clipPath>
</defs>
</svg>
