<svg width="243" height="58" viewBox="0 0 243 58" fill="none" xmlns="http://www.w3.org/2000/svg">
<path d="M60.1924 51.6745V11.1734H77.6091C80.1439 11.1734 82.413 11.3984 84.4163 11.8484C86.4197 12.2575 88.1368 12.9121 89.5678 13.8121C90.9987 14.6712 92.0822 15.7963 92.8181 17.1872C93.5949 18.5372 93.9833 20.1532 93.9833 22.0351C93.9833 23.6306 93.6358 25.0215 92.9407 26.2079C92.2866 27.3943 91.244 28.3557 89.8131 29.0921C88.3821 29.8285 86.481 30.3194 84.1097 30.5648V31.6081C88.0346 31.8535 90.9374 32.7945 92.8181 34.4309C94.6987 36.0673 95.6391 38.2764 95.6391 41.0583C95.6391 43.4311 95.0054 45.3948 93.738 46.9494C92.4706 48.504 90.6103 49.6904 88.1573 50.5086C85.7451 51.2859 82.7401 51.6745 79.1423 51.6745H60.1924ZM69.5753 43.8198H78.7743C81.2274 43.8198 83.0467 43.472 84.2324 42.7765C85.418 42.0402 86.0108 40.8947 86.0108 39.3401C86.0108 37.6219 85.2954 36.3332 83.8644 35.4741C82.4335 34.615 80.2666 34.1854 77.3638 34.1854H69.5753V43.8198ZM69.5753 28.1716H76.0146C78.8765 28.1716 80.9821 27.783 82.3312 27.0057C83.6804 26.1875 84.355 24.9806 84.355 23.3851C84.355 21.8305 83.7213 20.7055 82.4539 20.01C81.2274 19.2736 79.3671 18.9054 76.8732 18.9054H69.5753V28.1716Z" fill="#FB4414"/>
<path d="M102.105 51.6745V19.2736H111.978V51.6745H102.105ZM107.072 14.794C105.191 14.794 103.74 14.4053 102.718 13.628C101.737 12.8098 101.246 11.6439 101.246 10.1302C101.246 8.61652 101.737 7.47104 102.718 6.69374C103.74 5.87554 105.191 5.46644 107.072 5.46644C108.994 5.46644 110.445 5.87554 111.426 6.69374C112.448 7.47104 112.96 8.61652 112.96 10.1302C112.96 11.6439 112.448 12.8098 111.426 13.628C110.445 14.4053 108.994 14.794 107.072 14.794Z" fill="#FB4414"/>
<path d="M119.532 51.6745V7.55286H129.222V51.6745H119.532Z" fill="#FB4414"/>
<path d="M136.84 51.6745V7.49149H146.53V31.8535C147.716 30.9944 148.82 30.0739 149.842 29.0921C150.905 28.1102 151.865 27.0875 152.724 26.0238C153.583 24.9601 154.359 23.876 155.054 22.7715C155.79 21.626 156.404 20.46 156.894 19.2736H168.24C167.708 20.8691 166.972 22.4646 166.032 24.0601C165.091 25.6147 163.947 27.067 162.598 28.4171C161.248 29.7262 159.654 30.8512 157.814 31.7922C155.974 32.7331 153.869 33.3877 151.497 33.7558V34.7991C154.482 34.2263 156.915 34.2263 158.795 34.7991C160.676 35.3309 162.189 36.2105 163.333 37.4378C164.478 38.6651 165.337 40.0969 165.909 41.7333C166.522 43.3288 167.033 44.9243 167.442 46.5198L168.73 51.6745H157.998L157.385 48.5449C157.017 46.5812 156.547 44.8834 155.974 43.4516C155.443 42.0197 154.666 40.9151 153.644 40.1378C152.663 39.3196 151.211 38.9105 149.29 38.9105H146.53V51.6745H136.84Z" fill="#FB4414"/>
<path d="M188.215 52.5336C184.904 52.5336 181.98 51.8995 179.446 50.6313C176.952 49.3631 174.989 47.4608 173.558 44.9243C172.168 42.3879 171.473 39.2174 171.473 35.4127C171.473 31.6081 172.168 28.458 173.558 25.9624C174.989 23.426 176.972 21.5441 179.507 20.3168C182.042 19.0486 184.944 18.4145 188.215 18.4145C191.527 18.4145 194.45 19.0486 196.985 20.3168C199.52 21.5851 201.482 23.4874 202.872 26.0238C204.303 28.5193 205.019 31.6694 205.019 35.4741C205.019 39.3605 204.283 42.572 202.811 45.1084C201.339 47.6449 199.336 49.5267 196.801 50.754C194.266 51.9404 191.404 52.5336 188.215 52.5336ZM188.522 45.3539C189.994 45.3539 191.2 45.0266 192.14 44.372C193.121 43.6766 193.857 42.6334 194.348 41.2424C194.839 39.8515 195.084 38.1332 195.084 36.0877C195.084 33.9195 194.818 32.099 194.287 30.6262C193.755 29.1125 192.978 27.967 191.956 27.1898C190.934 26.3716 189.605 25.9624 187.97 25.9624C186.539 25.9624 185.333 26.3102 184.352 27.0057C183.37 27.6602 182.635 28.683 182.144 30.0739C181.653 31.4649 181.408 33.2036 181.408 35.29C181.408 38.6446 182.021 41.1606 183.248 42.8379C184.474 44.5152 186.232 45.3539 188.522 45.3539Z" fill="#FB4414"/>
<path d="M210.803 51.6745V19.2736H218.715L218.837 28.908H220.064C220.595 26.5761 221.352 24.6329 222.333 23.0783C223.314 21.5237 224.561 20.3578 226.074 19.5805C227.587 18.8032 229.365 18.4145 231.409 18.4145C235.211 18.4145 238.094 19.7441 240.056 22.4033C242.019 25.0215 243 29.2353 243 35.0445V51.6745H233.065V36.1491C233.065 32.7945 232.595 30.3603 231.654 28.8466C230.714 27.3329 229.304 26.5761 227.423 26.5761C225.91 26.5761 224.643 27.0466 223.621 27.9875C222.64 28.9284 221.904 30.1967 221.413 31.7922C220.922 33.3467 220.677 35.1059 220.677 37.0696V51.6745H210.803Z" fill="#FB4414"/>
<g clip-path="url(#clip0_12563_4365)">
<path fill-rule="evenodd" clip-rule="evenodd" d="M45.9971 51.5838V54.5617L21.5885 40.0683L13.4651 44.8994V41.9087L21.5885 37.0904L45.9971 51.5838ZM45.1414 52.0694L22.4571 38.5985V39.5826L45.1414 53.0535V52.0694Z" fill="#FB4414"/>
<path d="M22.0996 47.4683H24.1432V45.4234H22.0996V47.4683Z" fill="#FB4414"/>
<path d="M21.1288 47.4683V45.4234H19.0852V47.4683H21.1288Z" fill="#FB4414"/>
<path d="M22.0996 48.4268V50.4845H24.1432V48.4268H22.0996Z" fill="#FB4414"/>
<path d="M21.1288 48.4268H19.0852V50.4845H21.1288V48.4268Z" fill="#FB4414"/>
<path d="M14.6785 26.2394V14.9028L13.4651 15.6313V26.9807L13.5034 26.9551L14.6785 26.2394Z" fill="#FB4414"/>
<path d="M16.7476 24.9997V13.6504L15.5342 14.3917V25.7282L15.5725 25.7027L16.7476 24.9997Z" fill="#FB4414"/>
<path d="M18.8169 23.76V12.4106L17.6035 13.1392V24.4885L17.6418 24.4629L18.8169 23.76Z" fill="#FB4414"/>
<path d="M20.886 22.5074V11.158L19.6726 11.8993V23.2359L19.7109 23.2103L20.886 22.5074Z" fill="#FB4414"/>
<path d="M33.7992 6.04558L45.9971 13.19V10.8L33.7992 3.45108L21.5885 10.8V28.1563L17.9355 25.958L13.4651 28.6548V40.0297L21.8695 35.0324L23.3895 35.9398V12.3082L25.0499 11.3113V36.9239L26.8509 37.9847V10.2249L28.7029 9.11297V39.0839L30.5039 40.1575V8.0266L32.3559 6.91468V41.2566L45.9971 49.3596V47.2892L40.9902 44.3496V43.8511L33.7992 39.6335V38.5343L45.9971 45.6788V43.2249L40.9902 40.2981V39.7868L33.7992 35.5692V34.47L45.9971 41.6145V39.1606L40.9902 36.2338V35.7226L33.7992 31.5049V30.4057L45.9971 37.5502V35.0963L40.9902 32.1695V31.6583L33.7992 27.4534V26.3415L45.9971 33.4859V31.0448L40.9902 28.1052V27.6068L33.7992 23.3891V22.29L45.9971 29.4344V26.9805L40.9902 24.0537V23.5425L33.7992 19.3248V18.2257L45.9971 25.3701V22.9162L40.9902 19.9894V19.4782L33.7992 15.2733V14.1614L45.9971 21.3058V18.8647L40.9902 15.9251V15.4267L33.7992 11.209V10.0971L45.9971 17.2543V14.8004L40.9902 11.8736V11.3624L33.7992 7.14473V6.04558Z" fill="#FB4414"/>
</g>
<defs>
<clipPath id="clip0_12563_4365">
<rect width="32.6981" height="51.2509" fill="white" transform="translate(13.3752 3.37447)"/>
</clipPath>
</defs>
</svg>
