<svg xmlns="http://www.w3.org/2000/svg" width="137" height="136" fill="none" viewBox="0 0 137 136"><path fill="#fb4414" stroke="#fff" stroke-width="4" d="M66.684 2.605a1.763 1.763 0 0 1 2.66 0l3.024 3.474c.621.713 1.693.81 2.432.219l3.596-2.878a1.763 1.763 0 0 1 2.617.475l2.356 3.958a1.763 1.763 0 0 0 2.353.65l4.053-2.19a1.763 1.763 0 0 1 2.49.934l1.61 4.315a1.765 1.765 0 0 0 2.2 1.06l4.378-1.43a1.763 1.763 0 0 1 2.283 1.363l.816 4.534a1.76 1.76 0 0 0 1.974 1.434l4.564-.625a1.763 1.763 0 0 1 2.002 1.75l-.007 4.605a1.764 1.764 0 0 0 1.687 1.765l4.602.2a1.764 1.764 0 0 1 1.658 2.078l-.83 4.531c-.17.93.423 1.828 1.345 2.037l4.492 1.018a1.763 1.763 0 0 1 1.26 2.342l-1.625 4.31c-.334.884.09 1.874.959 2.244l4.239 1.804a1.763 1.763 0 0 1 .821 2.529l-2.368 3.95c-.486.81-.247 1.86.543 2.38l3.848 2.531a1.763 1.763 0 0 1 .357 2.636l-3.036 3.464a1.763 1.763 0 0 0 .109 2.438l3.335 3.178c.774.738.718 1.99-.12 2.656l-3.605 2.867a1.763 1.763 0 0 0-.328 2.418l2.713 3.722a1.763 1.763 0 0 1-.591 2.593l-4.06 2.176a1.76 1.76 0 0 0-.754 2.322l2.005 4.147a1.763 1.763 0 0 1-1.045 2.445l-4.383 1.416c-.9.291-1.41 1.24-1.157 2.15l1.232 4.438a1.762 1.762 0 0 1-1.465 2.219l-4.565.611a1.764 1.764 0 0 0-1.522 1.909l.42 4.587a1.763 1.763 0 0 1-1.837 1.922l-4.602-.214a1.76 1.76 0 0 0-1.838 1.606l-.405 4.588a1.764 1.764 0 0 1-2.152 1.563l-4.489-1.032a1.763 1.763 0 0 0-2.095 1.252l-1.219 4.442a1.763 1.763 0 0 1-2.395 1.154l-4.233-1.817a1.76 1.76 0 0 0-2.285.858l-1.992 4.153a1.763 1.763 0 0 1-2.564.707l-3.84-2.543a1.763 1.763 0 0 0-2.401.435l-2.702 3.731a1.763 1.763 0 0 1-2.649.239l-3.324-3.189a1.764 1.764 0 0 0-2.44 0l-3.325 3.189a1.764 1.764 0 0 1-2.649-.239l-2.701-3.731a1.763 1.763 0 0 0-2.402-.435l-3.84 2.543c-.892.591-2.1.258-2.563-.707l-1.992-4.153a1.76 1.76 0 0 0-2.286-.858l-4.232 1.817a1.763 1.763 0 0 1-2.396-1.154l-1.218-4.442a1.763 1.763 0 0 0-2.096-1.252l-4.489 1.032a1.763 1.763 0 0 1-2.151-1.563l-.406-4.588a1.763 1.763 0 0 0-1.838-1.606l-4.601.214a1.764 1.764 0 0 1-1.838-1.922l.42-4.587a1.764 1.764 0 0 0-1.522-1.909l-4.565-.611a1.763 1.763 0 0 1-1.465-2.219L13.87 98.6a1.763 1.763 0 0 0-1.156-2.15l-4.383-1.416a1.763 1.763 0 0 1-1.045-2.445l2.005-4.147a1.763 1.763 0 0 0-.755-2.322l-4.06-2.176a1.763 1.763 0 0 1-.59-2.593l2.712-3.722a1.763 1.763 0 0 0-.327-2.419l-3.606-2.866a1.763 1.763 0 0 1-.12-2.656L5.88 66.51a1.763 1.763 0 0 0 .11-2.439l-3.037-3.463a1.763 1.763 0 0 1 .357-2.636l3.849-2.531c.79-.52 1.029-1.57.543-2.38l-2.369-3.95a1.763 1.763 0 0 1 .822-2.53l4.238-1.803c.87-.37 1.293-1.36.96-2.244l-1.626-4.31a1.763 1.763 0 0 1 1.26-2.342l4.493-1.018a1.763 1.763 0 0 0 1.344-2.037l-.83-4.53a1.763 1.763 0 0 1 1.659-2.08l4.601-.2a1.763 1.763 0 0 0 1.687-1.764l-.007-4.606a1.763 1.763 0 0 1 2.003-1.75l4.563.626a1.763 1.763 0 0 0 1.975-1.434l.815-4.534a1.763 1.763 0 0 1 2.283-1.364l4.378 1.43a1.763 1.763 0 0 0 2.2-1.059l1.611-4.315a1.763 1.763 0 0 1 2.49-.934l4.053 2.19a1.763 1.763 0 0 0 2.352-.65l2.357-3.958a1.763 1.763 0 0 1 2.616-.475l3.597 2.878c.738.59 1.81.494 2.431-.22z"/><circle cx="67.514" cy="67.579" r="54.5" stroke="#f0f3ff" stroke-width="2"/><path fill="#fff" d="m70.278 27.241-.8-6.437 1.304.138.492 5.346.095.01 1.726-5.11 1.551.164.607 5.358.105.01 1.61-5.122 1.248.132-2.16 6.124-1.695-.18-.578-5.355-.085-.009-1.688 5.115zm7.209.802 3.882-5.44 1.698.502.304 6.676-1.267-.374-.091-5.606-.129-.038-3.14 4.652zm1.479-.92.241-.817 3.819 1.128-.241.817zm5.87 3.389 2.606-5.755 1.107.501-2.605 5.755zm.475-5.596.422-.933 4.534 2.053-.422.933zm5.253 8.886a3.8 3.8 0 0 1-.971-.86 2.6 2.6 0 0 1-.476-1.032 2.8 2.8 0 0 1 .039-1.18q.147-.622.566-1.274.433-.678.946-1.088.521-.405 1.084-.556.567-.16 1.146-.05.578.107 1.142.47.435.278.734.628.3.351.42.747.135.393.087.805-.044.405-.288.805l-1.111-.36q.24-.357.234-.702a1.2 1.2 0 0 0-.187-.631 1.45 1.45 0 0 0-.463-.467 1.6 1.6 0 0 0-.583-.226 1.5 1.5 0 0 0-.663.042q-.345.096-.704.39-.354.285-.694.817-.434.678-.508 1.22-.068.549.15.972.231.42.674.705.452.288.831.282.386-.016.697-.236a2.4 2.4 0 0 0 .56-.574l.797.726a3.2 3.2 0 0 1-.635.708q-.359.293-.791.402a2 2 0 0 1-.935.004q-.51-.11-1.098-.487m6.139 4.739 4.234-4.688.895.808-4.234 4.688zm-3.083-2.784 4.234-4.689.895.809-4.234 4.688zm2.32-1.555.667-.739 2.934 2.65-.667.738zm6.529 11.36 5.175-3.622.692.988-5.176 3.622zm-2.382-3.403 5.175-3.622.692.988-5.176 3.622zm2.609-.996.815-.571 2.267 3.238-.816.571zm1.24 6.647 5.561-2.996.582 1.078-5.562 2.997zm1.998 4.785a2.8 2.8 0 0 1-.181-1.43q.106-.7.645-1.291.54-.592 1.546-.987a4.5 4.5 0 0 1 1.374-.323 2.8 2.8 0 0 1 1.197.168q.554.204.965.65.42.441.692 1.136.207.526.246.994.052.472-.057.876a1.8 1.8 0 0 1-.37.71 1.9 1.9 0 0 1-.668.498l-.74-.943q.394-.175.576-.472.185-.29.191-.64a1.75 1.75 0 0 0-.127-.691q-.2-.508-.566-.786t-.915-.289-1.289.28a4 4 0 0 0-.925.496 1.9 1.9 0 0 0-.53.588 1.44 1.44 0 0 0-.172.664q.003.348.146.714.165.419.426.666.265.255.638.315.376.069.853-.078l-.468-1.194.838-.328.905 2.307-1.016.399-1.987.78-.321-.82 1.569-.534-.059-.151a3.2 3.2 0 0 1-1.074-.011 1.67 1.67 0 0 1-.797-.407q-.329-.313-.545-.866m2.414 8.096 6.188-1.274.243 1.18-6.188 1.275zm-.837-4.07 6.187-1.273.243 1.181-6.187 1.274zm2.79.12.975-.2.797 3.871-.975.201zm-1.516 6.596 6.305-.381.073 1.204-6.305.381zm.017.277 1.031-.062.224 3.688-1.032.062zm.203 4.573 6.312.24-.046 1.225-6.313-.241zm-.686 5.14q.117-.766.561-1.327.442-.552 1.206-.793.764-.242 1.832-.078.777.118 1.351.41.585.293.951.746.376.454.508 1.046.142.593.029 1.33-.085.559-.286.983-.192.435-.489.729a1.8 1.8 0 0 1-.676.43q-.38.135-.828.095l-.167-1.187q.429.045.735-.12.304-.157.487-.458.18-.292.236-.661.083-.54-.094-.964t-.647-.709-1.255-.405a4 4 0 0 0-1.05-.035q-.445.059-.754.243-.3.187-.481.488a2 2 0 0 0-.232.691q-.068.445.034.79.102.354.394.592.291.249.777.361l.194-1.267.89.136-.375 2.45-1.079-.165-2.11-.323.133-.87 1.626.326.024-.16a3.3 3.3 0 0 1-.923-.549 1.67 1.67 0 0 1-.485-.752q-.127-.435-.037-1.022m-1.971 8.216 5.993 1.998-.382 1.144-5.992-1.998zm1.315-3.94 5.992 1.998-.381 1.144-5.993-1.999zm2.354 1.5.944.316-1.25 3.75-.944-.315zm-5.231 6.13 5.621 2.883-.555 1.082-5.621-2.884zm5.566.746.911.468-2.272 4.428-.911-.467zm-8.944 4.6q.36-.508.744-.834.376-.331.778-.469.405-.123.807-.061.41.067.821.348l-.363 1.057q-.369-.274-.735-.287a1.2 1.2 0 0 0-.691.213 2.5 2.5 0 0 0-.621.628 2.3 2.3 0 0 0-.361.706q-.095.332-.033.576a.7.7 0 0 0 .273.393q.227.16.476.09a1.5 1.5 0 0 0 .542-.284q.287-.207.614-.502.358-.322.72-.617.355-.287.738-.462.382-.174.775-.166.395.022.809.316.468.332.638.804.177.478.049 1.056-.126.591-.569 1.216-.438.617-.952.944a1.93 1.93 0 0 1-1.04.342 1.77 1.77 0 0 1-1.022-.314l.387-1.075q.258.182.506.23.25.06.486-.007.244-.062.461-.237.213-.165.406-.44a2 2 0 0 0 .313-.622 1 1 0 0 0 .013-.531.65.65 0 0 0-.263-.374.59.59 0 0 0-.531-.095 1.8 1.8 0 0 0-.591.32q-.308.25-.653.557-.309.285-.648.55-.345.27-.714.444a1.55 1.55 0 0 1-.772.145q-.4-.015-.822-.314a1.66 1.66 0 0 1-.625-.807q-.171-.485-.016-1.102t.666-1.335m-1.923 7.573 1.106-.168-.079 1.32.067.04 1.067-.783.534 1.002-1.318.347-.007.061 1.079.767-.817.794-.736-1.1-.068.012-.356 1.281-1.015-.535.814-1.044-.033-.062-1.334.043.198-1.1 1.252.436.055-.053zm-7.342 1.872 4.6 4.574-1.111.695-3.685-3.904-.08.051 1.793 5.087-1.322.827-3.782-3.843-.09.056 1.892 5.026-1.063.665-2.077-6.152 1.444-.904 3.758 3.859.073-.046-1.826-5.067zm-6.168 3.814.283 6.678-1.648.648-4.344-5.079 1.229-.484 3.518 4.366.125-.05-.384-5.599zm-.601 1.636.312.792-3.705 1.458-.312-.792zm-6.716.931 1.468 6.145-1.182.282-1.468-6.144zm3.055 4.712.238.997-4.841 1.156-.238-.996zm-9.597-3.791a3.8 3.8 0 0 1 1.296.081q.58.156 1.01.521.428.373.694.954.266.58.338 1.352.075.801-.077 1.44a3.05 3.05 0 0 1-.512 1.105 2.5 2.5 0 0 1-.873.745 3.2 3.2 0 0 1-1.19.332 3.3 3.3 0 0 1-.965-.044 2.1 2.1 0 0 1-.79-.33 1.8 1.8 0 0 1-.564-.582 1.9 1.9 0 0 1-.268-.812l1.097-.4q.03.43.248.698.216.268.535.383.309.114.652.083a1.5 1.5 0 0 0 1.096-.621q.213-.29.315-.741.103-.442.044-1.071-.075-.801-.35-1.275-.285-.474-.716-.673a1.94 1.94 0 0 0-.965-.141q-.534.05-.829.289-.293.248-.403.614-.11.375-.09.797l-1.074-.083a3.2 3.2 0 0 1 .065-.948q.102-.452.377-.804.265-.351.734-.578.47-.227 1.165-.291m-7.755.052-.438 6.302-1.203-.083.438-6.302zm4.144.288-.438 6.302-1.203-.083.438-6.302zm-.866 2.655-.069.993-3.943-.274.069-.993zm-12.142-4.935-1.853 6.039-1.153-.354 1.853-6.039zm3.971 1.218-1.853 6.04-1.153-.354 1.853-6.039zm-1.444 2.391-.292.951-3.78-1.159.293-.952zm-5.067-4.479-2.537 5.785-1.122-.492 2.537-5.785zm-4.515-2.549q.667.397 1.02 1.019.345.618.282 1.416-.062.798-.615 1.727-.402.675-.888 1.098a2.8 2.8 0 0 1-1.048.602 2.5 2.5 0 0 1-1.16.078q-.604-.091-1.245-.474a3.5 3.5 0 0 1-.803-.634 2.3 2.3 0 0 1-.492-.727 1.8 1.8 0 0 1-.144-.787q.017-.402.222-.804l1.163.292q-.203.38-.165.726.032.34.242.623.203.276.524.467.47.28.928.274.46-.005.9-.333t.847-1.011q.309-.517.427-.96a1.9 1.9 0 0 0 .058-.79 1.45 1.45 0 0 0-.272-.629 2 2 0 0 0-.553-.474 1.8 1.8 0 0 0-.744-.265 1.16 1.16 0 0 0-.698.142q-.34.177-.626.585l1.102.656-.46.773-2.13-1.268.558-.937 1.091-1.835.757.451-.913 1.384.14.083a3.2 3.2 0 0 1 .855-.65q.423-.205.879-.167.451.046.961.349m-6.885-4.898-4.086 4.818-.92-.78 4.086-4.818zm3.168 2.687-4.085 4.818-.92-.78 4.085-4.818zm-2.27 1.626-.644.759-3.015-2.556.644-.76zm-2.872-6.13-4.748 4.167-.796-.907 4.749-4.166zm-.183-.209-.777.682-2.437-2.777.777-.682zm-2.97-3.483-5.095 3.734-.724-.989 5.095-3.733zm-2.627-4.47q.377.677.37 1.394-.01.707-.465 1.366t-1.4 1.185a4.5 4.5 0 0 1-1.318.505 2.8 2.8 0 0 1-1.208-.006 2.46 2.46 0 0 1-1.043-.514q-.476-.381-.84-1.034a3.6 3.6 0 0 1-.376-.951 2.4 2.4 0 0 1-.06-.876q.053-.414.27-.753.216-.34.595-.584l.86.836q-.368.225-.507.545a1.2 1.2 0 0 0-.103.66q.036.341.218.668.266.476.666.702.4.227.946.164.544-.063 1.24-.45.525-.293.85-.617.315-.318.446-.654.122-.331.081-.68a2 2 0 0 0-.24-.688 1.8 1.8 0 0 0-.512-.603 1.16 1.16 0 0 0-.674-.227q-.383-.016-.836.192l.624 1.12-.785.438-1.207-2.165.953-.531 1.864-1.04.429.77-1.484.74.08.141a3.2 3.2 0 0 1 1.065-.133q.468.035.844.296.367.267.657.785M30.307 79.4l-5.953 2.114-.404-1.136 5.953-2.114zm1.39 3.915-5.953 2.114-.404-1.137 5.953-2.114zm-2.78.266-.938.333-1.323-3.725.938-.334zm.356-8.052-6.208 1.167-.225-1.194 6.208-1.168zm-4.855 2.822-1.007.19-.92-4.892 1.007-.19zm4.239-9.116a4.5 4.5 0 0 1-.074 1.114q-.093.493-.326.849a1.8 1.8 0 0 1-.598.544q-.364.2-.861.231l-.365-1.057q.46-.01.757-.225.287-.215.413-.594.127-.39.104-.877a2.3 2.3 0 0 0-.15-.779q-.13-.319-.328-.473a.7.7 0 0 0-.457-.142.54.54 0 0 0-.43.22q-.164.21-.253.558a7 7 0 0 0-.176.774q-.084.474-.188.929-.105.446-.298.818a1.75 1.75 0 0 1-.509.608q-.325.225-.832.248-.573.026-.997-.242-.435-.268-.688-.802-.265-.545-.3-1.309-.034-.756.17-1.33.195-.574.61-.91.416-.334.999-.38l.356 1.086q-.315.015-.54.13a.94.94 0 0 0-.38.305 1.2 1.2 0 0 0-.218.47q-.065.26-.05.596.019.391.137.683.118.282.317.427a.65.65 0 0 0 .437.133.59.59 0 0 0 .477-.252q.171-.237.269-.615.088-.388.173-.842a10 10 0 0 1 .173-.832q.105-.426.29-.789.184-.363.519-.589.325-.235.841-.258.555-.026.989.252.435.277.69.86.256.582.297 1.462m-3.155-7.15-.767.813-.75-1.087-.079.008-.357 1.275-1.039-.46.824-1.086-.031-.053-1.322.062.154-1.129 1.257.413.046-.052-.509-1.228 1.13-.204.002 1.324.064.028 1.025-.855.522.989-1.256.427-.01.076zm4.633-5.996-6.438-.792.451-1.231 5.305.825.033-.09-4.536-2.919.537-1.464 5.344.717.037-.1-4.577-2.81.432-1.177 5.413 3.587-.587 1.599-5.334-.744-.03.081 4.55 2.882zm2.534-6.795-4.324-5.096.902-1.524 6.548 1.341-.673 1.137-5.458-1.285-.068.115 3.74 4.184zm-.53-1.66-.733-.433 2.028-3.427.733.434zm4.718-4.865-4.953-3.92.755-.954 4.953 3.921zm-5.314-1.814-.803-.636 3.09-3.902.802.635zm9.898-2.942a3.8 3.8 0 0 1-1.072.733q-.555.233-1.117.21a2.8 2.8 0 0 1-1.134-.326 4.2 4.2 0 0 1-1.098-.86 4.4 4.4 0 0 1-.824-1.182 3.1 3.1 0 0 1-.275-1.187q-.016-.59.23-1.124.247-.534.734-.993.377-.354.79-.559.411-.203.826-.225.414-.035.802.112.381.14.71.476l-.62.99q-.287-.32-.624-.398a1.2 1.2 0 0 0-.657.027q-.315.1-.566.335-.223.21-.36.51a1.5 1.5 0 0 0-.122.653q.009.36.207.779.19.411.623.872.551.586 1.06.79.515.2.979.091.465-.121.847-.482.391-.367.476-.737a1.27 1.27 0 0 0-.059-.733 2.4 2.4 0 0 0-.42-.683l.9-.596q.334.37.53.788.198.42.198.866a2 2 0 0 1-.224.907q-.23.468-.74.946m6.085-4.809-3.528-5.24 1-.674 3.528 5.24zm-3.446 2.32-3.528-5.24 1-.673 3.529 5.24zm-.949-2.626-.556-.826 3.28-2.208.555.826zM55.74 29.32l-2.245-5.904 1.127-.429 2.246 5.905zm-3.883 1.477-2.245-5.905 1.128-.429 2.245 5.905zm-.327-2.774-.354-.93 3.695-1.405.354.93zm6.75.424-1.55-6.124 1.187-.3 1.55 6.124zm5.127-.767q-.77.098-1.43-.175-.653-.274-1.095-.942t-.578-1.74a4.5 4.5 0 0 1 .024-1.412 2.8 2.8 0 0 1 .456-1.119q.333-.486.866-.776.531-.3 1.272-.393a3.6 3.6 0 0 1 1.023.005q.472.066.835.27.364.205.599.532t.32.77l-1.097.487q-.073-.425-.317-.674a1.2 1.2 0 0 0-.574-.342 1.75 1.75 0 0 0-.7-.046q-.541.069-.9.356-.36.286-.505.816t-.045 1.318q.076.599.255 1.02.177.411.44.657.262.237.602.33.339.081.728.032.445-.056.75-.25.312-.194.461-.54.159-.35.134-.847l-1.272.161-.114-.892 2.46-.312.137 1.082.269 2.117-.874.112-.132-1.653-.162.02q-.067.607-.273 1.039a1.67 1.67 0 0 1-.59.673q-.384.242-.973.316m1.126 48.18 10.765-6.901q.773-.498.773-1.38 0-.885-.773-1.38l-10.766-6.902q-.828-.552-1.683-.083t-.856 1.463V74.48q0 .994.856 1.462.855.47 1.684-.082m2.98 13.802q-4.581 0-8.612-1.74-4.03-1.738-7.011-4.72-2.982-2.98-4.72-7.011-1.74-4.03-1.74-8.612 0-4.583 1.74-8.613 1.738-4.03 4.72-7.011 2.98-2.982 7.011-4.72 4.03-1.74 8.613-1.74t8.612 1.74 7.012 4.72q2.98 2.98 4.72 7.011 1.74 4.03 1.74 8.613 0 4.581-1.74 8.612t-4.72 7.011q-2.982 2.982-7.012 4.72-4.03 1.74-8.612 1.74"/></svg>