<svg width="42" height="42" viewBox="0 0 42 42" fill="none" xmlns="http://www.w3.org/2000/svg">
<path d="M37.078 27.2344H4.92187C3.10972 27.2344 1.64062 25.7653 1.64062 23.9531C1.64062 22.141 3.10972 20.6719 4.92187 20.6719H37.078C38.8902 20.6719 40.3593 22.141 40.3593 23.9531C40.3593 25.7653 38.8902 27.2344 37.078 27.2344Z" stroke="#FB4414" stroke-width="3.28124" stroke-miterlimit="10" stroke-linecap="round" stroke-linejoin="round"/>
<path d="M21 14.7656H7.87499C6.06284 14.7656 4.59375 13.2965 4.59375 11.4844V4.9219C4.59375 3.10976 6.06284 1.64066 7.87499 1.64066H21C22.8121 1.64066 24.2812 3.10976 24.2812 4.9219V11.4844C24.2812 13.2965 22.8121 14.7656 21 14.7656Z" stroke="#FB4414" stroke-width="3.28124" stroke-miterlimit="10" stroke-linecap="round" stroke-linejoin="round"/>
<path d="M14.4375 14.7656V20.6719" stroke="#FB4414" stroke-width="3.28124" stroke-miterlimit="10" stroke-linecap="round" stroke-linejoin="round"/>
<path d="M4.92188 27.2344V40.3594" stroke="#FB4414" stroke-width="3.28124" stroke-miterlimit="10" stroke-linecap="round" stroke-linejoin="round"/>
<path d="M37.0781 27.2344V40.3594" stroke="#FB4414" stroke-width="3.28124" stroke-miterlimit="10" stroke-linecap="round" stroke-linejoin="round"/>
<path d="M24.2812 33.7969V40.3594" stroke="#FB4414" stroke-width="3.28124" stroke-miterlimit="10" stroke-linecap="round" stroke-linejoin="round"/>
<path d="M24.2812 37.0781H37.0781" stroke="#FB4414" stroke-width="3.28124" stroke-miterlimit="10" stroke-linecap="round" stroke-linejoin="round"/>
<path d="M30.8438 14.4375H37.4062" stroke="#FB4414" stroke-width="3.28124" stroke-miterlimit="10" stroke-linecap="round" stroke-linejoin="round"/>
</svg>
