<svg width="42" height="42" viewBox="0 0 42 42" fill="none" xmlns="http://www.w3.org/2000/svg">
<path d="M11.4844 10.8281H20.6719M8.20312 33.7969V27.2344M17.3906 40.3594L23.2412 14.0319M24.6651 14.0319L30.5156 40.3594M40.3594 40.3594H1.64062M37.0781 10.8281V40.3594M27.2344 10.8281H40.3594M8.20312 20.0156C4.57874 20.0156 1.64062 17.0775 1.64062 13.4531V8.20312C1.64062 4.57874 4.57874 1.64062 8.20312 1.64062C10.0153 1.64062 11.4844 3.10972 11.4844 4.92188V16.7344C11.4844 18.5465 10.0153 20.0156 8.20312 20.0156Z" stroke="#FB4414" stroke-width="3.28125" stroke-miterlimit="10" stroke-linecap="round" stroke-linejoin="round"/>
<path d="M23.9531 14.1094C25.7653 14.1094 27.2344 12.6403 27.2344 10.8281C27.2344 9.01594 25.7653 7.54688 23.9531 7.54688C22.1409 7.54688 20.6719 9.01594 20.6719 10.8281C20.6719 12.6403 22.1409 14.1094 23.9531 14.1094Z" stroke="#FB4414" stroke-width="3.28125" stroke-miterlimit="10" stroke-linecap="round" stroke-linejoin="round"/>
<path d="M19.5781 30.5156H28.3281" stroke="#FB4414" stroke-width="3.28125" stroke-miterlimit="10" stroke-linecap="round" stroke-linejoin="round"/>
</svg>
