<svg width="42" height="42" viewBox="0 0 42 42" fill="none" xmlns="http://www.w3.org/2000/svg">
<path d="M21.3281 27.8906V26.25C21.3281 23.5317 23.5317 21.3281 26.25 21.3281H33.7969C37.4213 21.3281 40.3594 18.39 40.3594 14.7656V8.20312M21.3281 27.8906C19.516 27.8906 18.0469 29.3597 18.0469 31.1719V37.0781C18.0469 38.8903 19.516 40.3594 21.3281 40.3594C23.1403 40.3594 24.6094 38.8903 24.6094 37.0781V31.1719C24.6094 29.3597 23.1403 27.8906 21.3281 27.8906ZM8.20312 14.7656H6.5625C3.84423 14.7656 1.64062 12.562 1.64062 9.84375V6.5625C1.64062 3.84423 3.84423 1.64062 6.5625 1.64062H28.875C31.5933 1.64062 33.7969 3.84423 33.7969 6.5625V9.84375C33.7969 12.562 31.5933 14.7656 28.875 14.7656H14.7656V18.0469C14.7656 19.859 13.2965 21.3281 11.4844 21.3281C9.67222 21.3281 8.20312 19.859 8.20312 18.0469V8.20312" stroke="#FB4414" stroke-width="3.28125" stroke-miterlimit="10" stroke-linecap="round" stroke-linejoin="round"/>
</svg>
