<svg width="42" height="42" viewBox="0 0 42 42" fill="none" xmlns="http://www.w3.org/2000/svg">
<path d="M21.5742 42H9.84375C4.41591 42 0 37.5841 0 32.1562V9.84375C0 4.41591 4.41591 0 9.84375 0H32.1562C37.5841 0 42 4.41591 42 9.84375V15.9141C42 16.8202 41.2655 17.5547 40.3594 17.5547C39.4533 17.5547 38.7188 16.8202 38.7188 15.9141V9.84375C38.7188 6.22519 35.7748 3.28125 32.1562 3.28125H9.84375C6.22519 3.28125 3.28125 6.22519 3.28125 9.84375V32.1562C3.28125 35.7748 6.22519 38.7188 9.84375 38.7188H21.5742C22.4803 38.7188 23.2148 39.4533 23.2148 40.3594C23.2148 41.2655 22.4803 42 21.5742 42ZM36.386 40.2904L37.9235 38.7612C40.438 36.2603 42 32.7503 42 29.601V26.0859C42 23.6343 40.9437 22.224 40.0575 21.4727C38.783 20.392 37.0532 19.9671 35.1863 20.2765C35.0137 20.3051 34.8413 20.3346 34.6689 20.3641C33.7837 20.5156 32.9474 20.6588 32.1601 20.6643C31.3834 20.6706 30.562 20.5344 29.694 20.3909C29.5623 20.3692 29.4307 20.3474 29.2991 20.3261C27.5865 20.0493 25.8482 20.5335 24.5308 21.6549C23.2253 22.7663 22.4766 24.385 22.4766 26.096V28.9711C22.4766 32.6698 23.9242 36.1467 26.5529 38.7612L28.0905 40.2905C29.234 41.4278 30.7361 41.9966 32.2382 41.9966C33.7405 41.9966 35.2426 41.4278 36.386 40.2904ZM32.1834 23.9456C34.043 23.9456 35.556 23.5412 35.7229 23.5136C36.6226 23.3644 37.4085 23.5284 37.9355 23.9753C38.5829 24.5241 38.7188 25.426 38.7188 26.0859V29.601C38.7188 31.8738 37.4984 34.5562 35.6098 36.4348L34.0722 37.964C33.0611 38.9697 31.4158 38.9698 30.4044 37.964L28.8668 36.4348C26.862 34.4407 25.7578 31.79 25.7578 28.9711V26.096C25.7578 25.3374 26.0774 24.6475 26.6577 24.1535C27.1305 23.7512 27.7312 23.5306 28.3521 23.5312C29.2031 23.5312 30.1055 23.9456 32.1834 23.9456ZM35.4375 10.582C35.4375 9.67591 34.703 8.94141 33.7969 8.94141H8.20312C7.29701 8.94141 6.5625 9.67591 6.5625 10.582C6.5625 11.4881 7.29701 12.2227 8.20312 12.2227H33.7969C34.703 12.2227 35.4375 11.4881 35.4375 10.582Z" fill="#FB4414"/>
</svg>
