<svg width="42" height="42" viewBox="0 0 42 42" fill="none" xmlns="http://www.w3.org/2000/svg">
<path d="M28.5236 23.6483L33.1639 19.008M28.5236 19.008L33.1639 23.6483M8.83608 17.0858L13.4764 12.4455M8.83608 12.4455L13.4764 17.0858M21 1.64062V4.92188H6.5625C3.84423 4.92188 1.64062 7.12548 1.64062 9.84375V26.25C1.64062 28.9683 3.84423 31.1719 6.5625 31.1719H35.4375C38.1558 31.1719 40.3594 28.9683 40.3594 26.25V9.84375C40.3594 7.12548 38.1558 4.92188 35.4375 4.92188H27.5625M11.1562 40.3594L14.4375 31.1719M27.5625 31.1719L30.8438 40.3594M12.25 37.0781H29.75" stroke="#FB4414" stroke-width="3.28125" stroke-miterlimit="10" stroke-linecap="round" stroke-linejoin="round"/>
<path d="M27.5625 11.4844H24.2812C22.4691 11.4844 21 12.9535 21 14.7656V21.3281C21 23.1403 19.5309 24.6094 17.7188 24.6094H14.4375" stroke="#FB4414" stroke-width="3.28125" stroke-miterlimit="10" stroke-linecap="round" stroke-linejoin="round"/>
</svg>
