<svg xmlns="http://www.w3.org/2000/svg" width="137" height="136" fill="none" viewBox="0 0 137 136"><path fill="#040404" stroke="#fb4414" stroke-width="4" d="M66.684 2.605a1.763 1.763 0 0 1 2.66 0l3.024 3.473c.621.713 1.693.81 2.432.22l3.596-2.878a1.763 1.763 0 0 1 2.617.474l2.356 3.958a1.763 1.763 0 0 0 2.353.65l4.053-2.19a1.763 1.763 0 0 1 2.49.935l1.61 4.315a1.766 1.766 0 0 0 2.2 1.059l4.378-1.43a1.763 1.763 0 0 1 2.283 1.364l.816 4.533a1.76 1.76 0 0 0 1.974 1.435l4.564-.626a1.763 1.763 0 0 1 2.002 1.75l-.007 4.606a1.764 1.764 0 0 0 1.687 1.764l4.602.2a1.764 1.764 0 0 1 1.658 2.079l-.83 4.53c-.17.93.423 1.829 1.345 2.038l4.492 1.018a1.763 1.763 0 0 1 1.26 2.341l-1.625 4.31c-.334.884.09 1.874.959 2.245l4.239 1.803a1.763 1.763 0 0 1 .821 2.53l-2.368 3.95c-.486.81-.247 1.86.543 2.38l3.848 2.53a1.763 1.763 0 0 1 .357 2.636l-3.036 3.464a1.763 1.763 0 0 0 .109 2.438l3.335 3.178a1.764 1.764 0 0 1-.12 2.657l-3.605 2.866a1.763 1.763 0 0 0-.328 2.419l2.713 3.722a1.763 1.763 0 0 1-.591 2.593l-4.06 2.176a1.76 1.76 0 0 0-.754 2.321l2.005 4.147a1.763 1.763 0 0 1-1.045 2.445l-4.383 1.417c-.9.29-1.41 1.239-1.157 2.15l1.232 4.438a1.762 1.762 0 0 1-1.465 2.219l-4.565.611a1.763 1.763 0 0 0-1.522 1.908l.42 4.587a1.762 1.762 0 0 1-1.837 1.922l-4.602-.214a1.764 1.764 0 0 0-1.838 1.606l-.405 4.589a1.764 1.764 0 0 1-2.152 1.563l-4.489-1.032a1.76 1.76 0 0 0-2.095 1.252l-1.219 4.442a1.762 1.762 0 0 1-2.395 1.153l-4.233-1.817a1.764 1.764 0 0 0-2.285.858l-1.992 4.153a1.763 1.763 0 0 1-2.564.708l-3.84-2.544a1.763 1.763 0 0 0-2.401.436l-2.702 3.731a1.763 1.763 0 0 1-2.649.238l-3.324-3.188a1.76 1.76 0 0 0-2.44 0l-3.325 3.188a1.763 1.763 0 0 1-2.649-.238l-2.701-3.731a1.763 1.763 0 0 0-2.402-.436l-3.84 2.544c-.892.591-2.1.257-2.563-.708l-1.992-4.153a1.764 1.764 0 0 0-2.286-.858l-4.232 1.817a1.762 1.762 0 0 1-2.396-1.153l-1.218-4.442a1.763 1.763 0 0 0-2.096-1.252l-4.489 1.032a1.763 1.763 0 0 1-2.151-1.563l-.406-4.589a1.764 1.764 0 0 0-1.838-1.606l-4.601.214a1.763 1.763 0 0 1-1.838-1.922l.42-4.587a1.763 1.763 0 0 0-1.522-1.908l-4.565-.611a1.763 1.763 0 0 1-1.465-2.219l1.232-4.439a1.763 1.763 0 0 0-1.156-2.15l-4.383-1.416a1.763 1.763 0 0 1-1.045-2.445l2.005-4.147a1.763 1.763 0 0 0-.755-2.321l-4.06-2.176a1.763 1.763 0 0 1-.59-2.593l2.712-3.722a1.763 1.763 0 0 0-.327-2.419l-3.606-2.866a1.763 1.763 0 0 1-.12-2.657l3.335-3.178a1.763 1.763 0 0 0 .11-2.438l-3.037-3.464a1.763 1.763 0 0 1 .357-2.635L7.16 55.44a1.763 1.763 0 0 0 .543-2.38l-2.369-3.95a1.763 1.763 0 0 1 .822-2.529l4.238-1.803c.87-.37 1.293-1.36.96-2.245l-1.626-4.31a1.763 1.763 0 0 1 1.26-2.341l4.493-1.018a1.763 1.763 0 0 0 1.344-2.037l-.83-4.531a1.763 1.763 0 0 1 1.659-2.08l4.601-.199a1.763 1.763 0 0 0 1.687-1.764l-.007-4.606a1.763 1.763 0 0 1 2.003-1.75l4.563.626a1.763 1.763 0 0 0 1.975-1.435l.815-4.533a1.763 1.763 0 0 1 2.283-1.364l4.378 1.43a1.763 1.763 0 0 0 2.2-1.06l1.611-4.314a1.763 1.763 0 0 1 2.49-.934l4.053 2.189a1.763 1.763 0 0 0 2.352-.65l2.357-3.958a1.763 1.763 0 0 1 2.616-.474l3.597 2.877c.738.59 1.81.494 2.431-.219z"/><circle cx="67.514" cy="67.578" r="54.5" stroke="#fb4414" stroke-width="2"/><path fill="#fb4414" d="M71.76 27.445a2.8 2.8 0 0 1-1.364-.467q-.582-.403-.876-1.147-.294-.745-.206-1.823.063-.782.314-1.376a2.8 2.8 0 0 1 .677-1.001 2.46 2.46 0 0 1 1.008-.58q.581-.183 1.325-.122.563.045 1 .216.45.161.762.436.314.276.475.644.163.37.154.82l-1.172.25q.015-.432-.172-.725a1.2 1.2 0 0 0-.49-.453 1.75 1.75 0 0 0-.677-.19q-.543-.045-.954.162t-.662.695q-.251.49-.316 1.28-.05.601.04 1.05.088.44.294.735.208.286.521.446.315.15.705.182.45.037.786-.089.345-.125.563-.434.227-.308.306-.801l-1.279-.104.074-.897 2.47.202-.088 1.087-.174 2.128-.878-.072.211-1.644-.162-.014a3.3 3.3 0 0 1-.482.96 1.67 1.67 0 0 1-.716.537q-.426.157-1.017.109m4.313.345 1.497-6.137 1.18.288-1.496 6.137zm.763.186.236-.967 3.821.932-.236.967zm.65-2.669.218-.893 3.366.821-.217.893zm.61-2.501.236-.968 3.804.928-.236.967zm5.005 6.997 2.341-5.867 1.129.45-2.341 5.868zm.219-5.611.38-.951 4.622 1.844-.38.951zm5.039 8 5.315-4.052 1.475.98-1.682 6.47-1.1-.732 1.569-5.383-.112-.074-4.374 3.517zm1.685-.443.472-.71 3.315 2.206-.472.71zm5.857 5.936 4.498-4.435.847.859-4.498 4.435zm2.148-1.352.716-.706 2.574 2.611-.716.706zm1.991-1.962.742-.733 2.843 2.884-.743.732zm-.296 7.368 5.099-3.73 1.441 1.97q.294.402.467.785.187.385.25.73.069.354.013.667a1.5 1.5 0 0 1-.219.576q-.164.263-.45.471-.27.198-.557.277a1.3 1.3 0 0 1-.565.022 1.6 1.6 0 0 1-.575-.22 3 3 0 0 1-.571-.472l-.1.074q.213.39.246.71.038.327-.092.636-.13.308-.42.674l-.847 1.095-.786-1.074.814-.963a1.5 1.5 0 0 0 .336-.578.93.93 0 0 0 .003-.547 2 2 0 0 0-.307-.582l-.644-.881-1.824 1.334zm3.285-.908.678.927q.424.58.861.722.441.15.89-.177.448-.327.45-.78.006-.443-.428-1.038l-.69-.943zm.394 6.13 5.607-2.91.56 1.08-5.607 2.91zm.362.697.883-.459 1.812 3.492-.883.459zm2.438-1.265.816-.424 1.595 3.076-.815.423zm2.285-1.186.884-.459 1.803 3.475-.884.459zm-2.497 6.978 5.971-2.064.397 1.15-5.97 2.063zm.257.742.941-.325 1.285 3.718-.941.325zm2.596-.898.869-.3 1.131 3.275-.868.3zm2.434-.84.94-.326 1.279 3.7-.941.325zm-2.785 11.574a3.8 3.8 0 0 1 .044-1.298q.14-.586.491-1.024a2.8 2.8 0 0 1 .933-.722q.573-.283 1.343-.377a4.4 4.4 0 0 1 1.441.035q.645.143 1.12.48.484.335.769.85t.367 1.18a3.3 3.3 0 0 1-.016.966 2.1 2.1 0 0 1-.307.8q-.217.355-.565.58a1.9 1.9 0 0 1-.803.291l-.433-1.084q.429-.043.691-.268t.367-.547q.106-.312.064-.654a1.5 1.5 0 0 0-.653-1.077 2 2 0 0 0-.75-.294q-.444-.09-1.072-.013-.798.099-1.264.387-.465.298-.652.736-.177.446-.112.968.064.532.312.82.257.287.626.386.38.099.799.066l-.051 1.077q-.495.05-.949-.038a1.96 1.96 0 0 1-1.414-1.07q-.24-.462-.326-1.156m.21 6.273a3.2 3.2 0 0 1 .27-1.215q.243-.525.67-.892.436-.356 1.047-.53a4.4 4.4 0 0 1 1.385-.144q1.119.046 1.83.459.72.413 1.056 1.098.336.684.3 1.535-.027.66-.269 1.187a2.36 2.36 0 0 1-.669.882 2.8 2.8 0 0 1-1.058.55 4.3 4.3 0 0 1-1.414.152 4.3 4.3 0 0 1-1.398-.27 2.8 2.8 0 0 1-.998-.625 2.54 2.54 0 0 1-.593-.954 3.3 3.3 0 0 1-.159-1.233m.974.07q-.023.545.22.919.252.383.742.596.489.22 1.206.251.736.03 1.271-.148.534-.18.818-.55.292-.363.315-.907a1.53 1.53 0 0 0-.23-.91q-.243-.384-.751-.606-.498-.222-1.235-.253a3.8 3.8 0 0 0-.99.074 2.1 2.1 0 0 0-.721.296 1.5 1.5 0 0 0-.462.517 1.7 1.7 0 0 0-.183.72m-1.152 4.106 6.172 1.346-.337 1.543-5.236 1.953-.018.084 4.608.927-.251 1.15-6.172-1.346.306-1.402 5.442-2.046.02-.094-4.785-.965zm-2.67 9.201q.234-.577.532-.982.29-.41.65-.635.365-.215.77-.246.415-.029.88.15l-.11 1.112q-.422-.182-.782-.11-.35.075-.623.367-.277.3-.46.753-.176.435-.189.77-.015.346.101.568.126.227.356.32.258.104.484-.021.234-.122.462-.401a7 7 0 0 0 .482-.631q.275-.396.558-.766.28-.36.612-.62.332-.257.716-.339.39-.07.86.121.533.216.806.636.282.425.291 1.016.013.605-.274 1.314-.285.702-.709 1.138a1.93 1.93 0 0 1-.934.572 1.77 1.77 0 0 1-1.066-.07l.129-1.135a1.3 1.3 0 0 0 .545.107.94.94 0 0 0 .472-.119q.222-.116.394-.336.168-.21.294-.521.147-.364.161-.678a1 1 0 0 0-.11-.52.65.65 0 0 0-.341-.303.59.59 0 0 0-.539.03q-.255.144-.501.447-.242.314-.508.692-.234.35-.504.684a3.7 3.7 0 0 1-.593.597 1.55 1.55 0 0 1-.718.318q-.392.079-.872-.115a1.65 1.65 0 0 1-.793-.642q-.28-.433-.269-1.07.01-.634.34-1.452m-2.953 5.805q.288-.474.621-.799.327-.316.689-.487.357-.165.742-.188.384-.023.787.088.398.12.799.363l3.302 2.011-.632 1.038-3.262-1.986q-.449-.275-.833-.306a1.14 1.14 0 0 0-.702.177q-.318.21-.587.652-.274.45-.31.82a1.08 1.08 0 0 0 .165.705q.204.327.654.6l3.262 1.987-.628 1.03-3.302-2.011q-1.047-.638-1.263-1.588-.215-.938.498-2.106m-2.161 3.592 4.9 3.987-.761.935-4.9-3.986zm-.175.215.802.653-2.332 2.866-.802-.653zm-3.443 3.863 4.423 4.511-.868.851-4.423-4.51zm5.045 2.466.717.732-3.553 3.484-.718-.731zm-7.112-.477 2.06 6.358-1.413 1.066-5.546-3.731 1.055-.795 4.558 3.264.107-.081-1.868-5.292zm-.14 1.736.512.681-3.18 2.396-.512-.68zm-6.219 2.698 3.068 5.522-1.063.59-3.068-5.522zm4.21 3.716.498.895-4.35 2.417-.498-.895zm-7.775-1.823 2.484 5.808-1.127.482-2.483-5.809zm-5.135 1.627q.66-.196 1.237-.136.577.059 1.06.345.478.298.841.82.364.52.583 1.265.318 1.073.156 1.88a2.55 2.55 0 0 1-.697 1.354q-.54.539-1.357.779a3.1 3.1 0 0 1-1.21.128 2.3 2.3 0 0 1-1.05-.348 2.8 2.8 0 0 1-.863-.823 4.3 4.3 0 0 1-.6-1.29 4.3 4.3 0 0 1-.197-1.409q.023-.636.27-1.148.25-.503.712-.868a3.3 3.3 0 0 1 1.115-.549m.249.944q-.523.154-.799.505-.282.363-.325.895-.052.534.152 1.222.21.708.55 1.155.343.449.786.597.435.16.96.006.495-.147.786-.512.285-.354.331-.907.05-.543-.16-1.25a3.8 3.8 0 0 0-.389-.913 2.2 2.2 0 0 0-.512-.587 1.5 1.5 0 0 0-.64-.27 1.7 1.7 0 0 0-.74.059m-4.259.231.682 6.28-1.57.171-3.514-4.346-.086.009.583 4.664-1.17.127-.682-6.28 1.427-.155 3.667 4.512.096-.01-.603-4.845zm-9.507.595-.789 6.268-1.567-.197-2.414-5.041-.085-.01-.511 4.672-1.168-.147.788-6.268 1.425.179 2.525 5.238.095.012.533-4.853zm-9.71-1.947q.66.204 1.106.573.447.37.69.875.233.513.247 1.148.014.636-.216 1.376-.33 1.07-.912 1.652-.584.59-1.331.74a3.14 3.14 0 0 1-1.562-.103q-.63-.195-1.078-.564-.45-.36-.681-.872a2.8 2.8 0 0 1-.262-1.163 4.3 4.3 0 0 1 .215-1.407q.236-.759.618-1.281.37-.517.86-.806a2.6 2.6 0 0 1 1.074-.329q.575-.043 1.233.161m-.316.924q-.52-.16-.944-.022-.436.146-.766.565-.34.415-.552 1.102-.218.703-.182 1.266.037.562.323.931.274.377.796.537.494.154.938.01.434-.136.778-.57.342-.426.56-1.129.164-.53.182-.976a2.1 2.1 0 0 0-.101-.773 1.5 1.5 0 0 0-.382-.579 1.7 1.7 0 0 0-.65-.362m-4.423-2.622-1.738 6.25-1.15-.63 1.602-5.123-.084-.046-3.56 4.053-1.368-.749 1.502-5.178-.092-.051-3.459 4.109-1.1-.602 4.35-4.821 1.495.818-1.527 5.165.075.041 3.526-4.072zM41.575 99.17q.459.39.517.78.06.389-.295.805-.36.422-.753.427-.394.004-.853-.387-.474-.402-.532-.792-.066-.395.294-.818.353-.416.755-.414.392-.004.867.399m-3.728-6.22q.492.599.614 1.304.115.697-.215 1.428-.33.729-1.164 1.416a4.5 4.5 0 0 1-1.208.732q-.608.24-1.19.21a2.46 2.46 0 0 1-1.118-.32q-.536-.29-1.01-.867-.36-.436-.54-.868a2.4 2.4 0 0 1-.217-.851 1.8 1.8 0 0 1 .132-.79q.15-.372.48-.68l.996.668q-.32.288-.4.627a1.2 1.2 0 0 0 .016.668q.097.33.334.618.345.421.78.572t.96-.008 1.14-.664q.465-.382.726-.759.254-.369.322-.723.06-.348-.042-.684a2 2 0 0 0-.36-.634 1.8 1.8 0 0 0-.61-.501 1.16 1.16 0 0 0-.704-.103q-.38.051-.788.338l.814.99-.695.572-1.574-1.915.843-.693 1.649-1.356.559.68-1.328.993.103.126a3.2 3.2 0 0 1 1.025-.322q.467-.05.884.14.409.197.786.656m-2.753-3.338-5.452 3.191-.614-1.049 5.452-3.191zm-.396-.677-.86.502-1.987-3.395.86-.502zm-2.371 1.387-.793.465-1.75-2.99.793-.465zm-2.222 1.301-.86.503-1.977-3.378.86-.503zm1.555-8.464-5.851 2.38-.459-1.126 5.852-2.38zm-4.196 3.732-.948.386-1.876-4.61.948-.386zm2.258-9.172-6.61-.995-.322-1.74 5.813-3.298.241 1.299-4.955 2.622.024.132 5.57.69zm-1.491-.902-.838.156-.726-3.916.838-.155zm.195-8.338-6.315-.152.029-1.206 6.315.152zm-2.465-.605-1.005-.024.088-3.665 1.005.024zm-2.794-.067-1.043-.025.097-4.048 1.043.025zm5.502-4.91-6.225-1.073.414-2.405q.084-.49.239-.881.147-.403.351-.688.207-.294.47-.472.255-.18.566-.243.303-.064.652-.004.33.057.586.207.246.15.408.391.164.233.243.567.07.322.057.738l.123.02q.13-.423.338-.67.21-.255.522-.376.312-.12.777-.167l1.376-.151L29.34 59l-1.258.085a1.5 1.5 0 0 0-.65.16.93.93 0 0 0-.395.379 2 2 0 0 0-.204.625l-.185 1.075 2.226.384zm-2.936-1.73.195-1.132q.12-.708-.08-1.12-.198-.424-.746-.518-.546-.094-.873.219-.324.303-.449 1.03l-.198 1.15zm4.133-4.546-5.987-2.015.388-1.152 5.987 2.015zm.25-.744-.943-.317 1.255-3.728.943.317zm-2.603-.876-.871-.293 1.105-3.284.871.293zm-2.44-.821-.944-.318 1.249-3.71.943.318zm6.755-3.049-5.632-2.862.55-1.083 5.633 2.861zm.356-.7-.888-.45 1.782-3.508.888.451zm-2.45-1.244-.819-.416 1.57-3.09.82.417zm-2.295-1.166-.887-.451 1.773-3.49.887.45zm10.265-6.036q-.45.558-.962.871a2.6 2.6 0 0 1-1.078.36 2.8 2.8 0 0 1-1.169-.17 4.2 4.2 0 0 1-1.204-.702 4.4 4.4 0 0 1-.976-1.06 3.1 3.1 0 0 1-.434-1.139A2.5 2.5 0 0 1 31.957 39q.172-.562.593-1.083.325-.402.706-.66t.788-.336q.405-.09.81.003.398.087.768.375l-.48 1.065q-.328-.28-.672-.31a1.2 1.2 0 0 0-.648.116q-.297.141-.514.408a1.6 1.6 0 0 0-.289.555 1.5 1.5 0 0 0-.032.663q.059.355.31.744.246.382.736.78.626.505 1.157.639.537.126.983-.043.442-.184.774-.592.336-.417.372-.795a1.27 1.27 0 0 0-.158-.718 2.4 2.4 0 0 0-.508-.62l.81-.712q.38.32.632.709.253.387.313.83.066.435-.099.93t-.605 1.037m4.36-4.515a3.2 3.2 0 0 1-1.06.651 2.6 2.6 0 0 1-1.107.141 2.9 2.9 0 0 1-1.11-.381 4.4 4.4 0 0 1-1.068-.895q-.746-.834-.945-1.632-.206-.805.052-1.523t.893-1.285a3.1 3.1 0 0 1 1.04-.632q.54-.2 1.098-.135.56.052 1.131.376a4.3 4.3 0 0 1 1.094.91q.53.59.78 1.19.252.582.247 1.152a2.6 2.6 0 0 1-.272 1.09q-.259.513-.773.973m-.63-.748q.407-.363.507-.798a1.63 1.63 0 0 0-.089-.947q-.18-.505-.66-1.041-.49-.55-.99-.809-.502-.258-.965-.203-.465.04-.87.405a1.53 1.53 0 0 0-.493.799q-.107.441.088.96.188.513.678 1.063.37.414.743.658.366.238.714.312.356.067.693-.029.345-.102.645-.37m3.752-2.03-3.31-5.381 1.345-.828 5.038 2.418.074-.045-2.528-3.962 1.003-.617 3.31 5.38-1.223.752-5.248-2.502-.082.05 2.624 4.118zm8.477-4.47a4.5 4.5 0 0 1-1.075.302 2.3 2.3 0 0 1-.909-.024 1.8 1.8 0 0 1-.712-.382 2.1 2.1 0 0 1-.505-.735l.874-.696q.164.429.465.637.298.2.698.192.41-.01.861-.194.435-.177.684-.402.258-.229.337-.468a.7.7 0 0 0-.018-.477.54.54 0 0 0-.352-.333 1.5 1.5 0 0 0-.61-.052 7 7 0 0 0-.789.093q-.474.08-.937.133-.456.05-.871-.008a1.75 1.75 0 0 1-.743-.277q-.321-.231-.512-.701-.216-.532-.105-1.022.108-.498.527-.916.424-.43 1.134-.719.7-.285 1.31-.284.607-.008 1.06.272.456.28.693.814l-.905.698a1.3 1.3 0 0 0-.303-.466.94.94 0 0 0-.413-.255 1.2 1.2 0 0 0-.516-.05 2.1 2.1 0 0 0-.579.153 2 2 0 0 0-.599.357 1 1 0 0 0-.296.44.65.65 0 0 0 .02.457.59.59 0 0 0 .397.366q.28.082.67.048.394-.046.85-.118a10 10 0 0 1 .843-.115q.436-.042.84.01.404.054.729.293.33.227.524.707.21.514.093 1.016t-.58.938q-.465.435-1.28.767m6.225-1.912q-.542.12-1.006.107a2.6 2.6 0 0 1-.83-.158 2.1 2.1 0 0 1-.649-.404 2.4 2.4 0 0 1-.483-.628 3.4 3.4 0 0 1-.293-.827l-.842-3.774 1.186-.265.832 3.728q.115.513.358.812.24.289.615.383.372.083.876-.03.514-.114.805-.346.301-.233.394-.608.094-.374-.021-.887l-.832-3.728 1.177-.262.842 3.774q.268 1.196-.267 2.01-.525.805-1.862 1.103m4.086-.936-.528-6.295 1.202-.1.528 6.294zm.276-.023-.086-1.03 3.682-.309.086 1.03zm12.538 31.118-20.98 20.98q-.606.606-1.38.58-.772-.029-1.38-.636t-.607-1.407q0-.8.607-1.408l20.924-20.924h-9.772q-.845 0-1.416-.568-.57-.569-.571-1.408 0-.84.571-1.42.572-.58 1.416-.58h14.575q.844 0 1.416.572t.572 1.416V68.24q0 .844-.568 1.416-.569.572-1.408.572-.84 0-1.42-.572-.58-.57-.58-1.416z"/></svg>