<svg xmlns="http://www.w3.org/2000/svg" width="137" height="136" fill="none" viewBox="0 0 137 136"><path fill="#040404" stroke="#f0f3ff" stroke-width="4" d="M66.684 2.605a1.763 1.763 0 0 1 2.66 0l3.024 3.473c.621.713 1.693.81 2.432.22l3.596-2.878a1.763 1.763 0 0 1 2.617.474l2.356 3.958a1.763 1.763 0 0 0 2.353.65l4.053-2.19a1.763 1.763 0 0 1 2.49.935l1.61 4.315a1.766 1.766 0 0 0 2.2 1.059l4.378-1.43a1.763 1.763 0 0 1 2.283 1.364l.816 4.533a1.76 1.76 0 0 0 1.974 1.435l4.564-.626a1.763 1.763 0 0 1 2.002 1.75l-.007 4.606a1.764 1.764 0 0 0 1.687 1.764l4.602.2a1.764 1.764 0 0 1 1.658 2.079l-.83 4.53c-.17.93.423 1.829 1.345 2.038l4.492 1.018a1.763 1.763 0 0 1 1.26 2.341l-1.625 4.31c-.334.884.09 1.874.959 2.245l4.239 1.803a1.763 1.763 0 0 1 .821 2.53l-2.368 3.95c-.486.81-.247 1.86.543 2.38l3.848 2.53a1.763 1.763 0 0 1 .357 2.636l-3.036 3.464a1.763 1.763 0 0 0 .109 2.438l3.335 3.178a1.764 1.764 0 0 1-.12 2.657l-3.605 2.866a1.763 1.763 0 0 0-.328 2.419l2.713 3.722a1.763 1.763 0 0 1-.591 2.593l-4.06 2.176a1.76 1.76 0 0 0-.754 2.321l2.005 4.147a1.763 1.763 0 0 1-1.045 2.445l-4.383 1.417c-.9.29-1.41 1.239-1.157 2.15l1.232 4.438a1.762 1.762 0 0 1-1.465 2.219l-4.565.611a1.763 1.763 0 0 0-1.522 1.908l.42 4.587a1.762 1.762 0 0 1-1.837 1.922l-4.602-.214a1.764 1.764 0 0 0-1.838 1.606l-.405 4.589a1.764 1.764 0 0 1-2.152 1.563l-4.489-1.032a1.76 1.76 0 0 0-2.095 1.252l-1.219 4.442a1.762 1.762 0 0 1-2.395 1.153l-4.233-1.817a1.764 1.764 0 0 0-2.285.858l-1.992 4.153a1.763 1.763 0 0 1-2.564.708l-3.84-2.544a1.763 1.763 0 0 0-2.401.436l-2.702 3.731a1.763 1.763 0 0 1-2.649.238l-3.324-3.188a1.76 1.76 0 0 0-2.44 0l-3.325 3.188a1.763 1.763 0 0 1-2.649-.238l-2.701-3.731a1.763 1.763 0 0 0-2.402-.436l-3.84 2.544c-.892.591-2.1.257-2.563-.708l-1.992-4.153a1.764 1.764 0 0 0-2.286-.858l-4.232 1.817a1.762 1.762 0 0 1-2.396-1.153l-1.218-4.442a1.763 1.763 0 0 0-2.096-1.252l-4.489 1.032a1.763 1.763 0 0 1-2.151-1.563l-.406-4.589a1.764 1.764 0 0 0-1.838-1.606l-4.601.214a1.763 1.763 0 0 1-1.838-1.922l.42-4.587a1.763 1.763 0 0 0-1.522-1.908l-4.565-.611a1.763 1.763 0 0 1-1.465-2.219l1.232-4.439a1.763 1.763 0 0 0-1.156-2.15l-4.383-1.416a1.763 1.763 0 0 1-1.045-2.445l2.005-4.147a1.763 1.763 0 0 0-.755-2.321l-4.06-2.176a1.763 1.763 0 0 1-.59-2.593l2.712-3.722a1.763 1.763 0 0 0-.327-2.419l-3.606-2.866a1.763 1.763 0 0 1-.12-2.657l3.335-3.178a1.763 1.763 0 0 0 .11-2.438l-3.037-3.464a1.763 1.763 0 0 1 .357-2.635L7.16 55.44a1.763 1.763 0 0 0 .543-2.38l-2.369-3.95a1.763 1.763 0 0 1 .822-2.529l4.238-1.803c.87-.37 1.293-1.36.96-2.245l-1.626-4.31a1.763 1.763 0 0 1 1.26-2.341l4.493-1.018a1.763 1.763 0 0 0 1.344-2.037l-.83-4.531a1.763 1.763 0 0 1 1.659-2.08l4.601-.199a1.763 1.763 0 0 0 1.687-1.764l-.007-4.606a1.763 1.763 0 0 1 2.003-1.75l4.563.626a1.763 1.763 0 0 0 1.975-1.435l.815-4.533a1.763 1.763 0 0 1 2.283-1.364l4.378 1.43a1.763 1.763 0 0 0 2.2-1.06l1.611-4.314a1.763 1.763 0 0 1 2.49-.934l4.053 2.189a1.763 1.763 0 0 0 2.352-.65l2.357-3.958a1.763 1.763 0 0 1 2.616-.474l3.597 2.877c.738.59 1.81.494 2.431-.219z"/><circle cx="67.514" cy="67.578" r="54.5" stroke="#f0f3ff" stroke-width="2"/><path fill="#f0f3ff" d="M71.76 27.445a2.8 2.8 0 0 1-1.364-.467q-.582-.403-.877-1.147-.294-.745-.206-1.823.064-.782.314-1.376.252-.603.677-1.001a2.46 2.46 0 0 1 1.008-.58q.582-.183 1.326-.122.563.045 1 .216.448.161.761.436.314.276.476.644.162.37.154.82l-1.173.25q.016-.432-.171-.725a1.2 1.2 0 0 0-.491-.453 1.75 1.75 0 0 0-.676-.19q-.544-.045-.955.162t-.661.695q-.252.49-.316 1.28-.05.601.039 1.05.088.44.295.735.207.286.52.446.315.15.706.182.448.037.785-.089.346-.125.564-.434.227-.308.305-.801l-1.278-.104.073-.897 2.471.202-.089 1.087-.174 2.128-.877-.072.21-1.644-.161-.014a3.3 3.3 0 0 1-.482.96 1.67 1.67 0 0 1-.716.537q-.426.157-1.017.109m4.313.345 1.496-6.137 1.181.288-1.496 6.137zm.762.186.236-.967 3.822.932-.236.967zm.651-2.669.218-.893 3.366.821-.218.893zm.61-2.501.236-.968 3.803.928-.236.967zm5.004 6.997 2.342-5.867 1.129.45-2.342 5.868zm.22-5.611.38-.951 4.622 1.844-.38.951zm5.038 8 5.316-4.052 1.474.98-1.681 6.47-1.1-.732 1.568-5.383-.111-.074-4.374 3.517zm1.685-.443.472-.71 3.315 2.206-.471.71zm5.857 5.936 4.499-4.435.847.859-4.499 4.435zm2.149-1.352.715-.706 2.574 2.611-.716.706zm1.99-1.962.743-.733 2.842 2.884-.743.732zm-.295 7.368 5.099-3.73 1.441 1.97q.294.402.467.785.186.385.25.73.068.354.013.667a1.5 1.5 0 0 1-.22.576 1.7 1.7 0 0 1-.45.471q-.27.198-.556.277a1.3 1.3 0 0 1-.565.022 1.6 1.6 0 0 1-.576-.22 3 3 0 0 1-.57-.472l-.101.074q.214.39.246.71.039.327-.091.636a3 3 0 0 1-.42.674l-.848 1.095-.785-1.074.813-.963q.258-.296.337-.578a.94.94 0 0 0 .002-.547 2 2 0 0 0-.307-.582l-.644-.881-1.823 1.334zm3.284-.908.679.927q.423.58.86.722.443.15.89-.177.449-.327.45-.78.007-.443-.428-1.038l-.689-.943zm.395 6.13 5.607-2.91.56 1.08-5.607 2.91zm.361.697.884-.459 1.812 3.492-.884.459zm2.438-1.265.816-.424 1.596 3.076-.816.423zm2.286-1.186.883-.459 1.803 3.475-.883.459zm-2.497 6.978 5.971-2.064.397 1.15-5.971 2.063zm.256.742.941-.325 1.285 3.718-.941.325zm2.597-.898.868-.3 1.132 3.275-.869.3zm2.433-.84.941-.326 1.279 3.7-.941.325zm-2.784 11.574a3.8 3.8 0 0 1 .043-1.298 2.6 2.6 0 0 1 .491-1.024q.361-.44.934-.722a4.2 4.2 0 0 1 1.342-.377 4.4 4.4 0 0 1 1.441.035q.645.143 1.12.48.485.335.77.85t.367 1.18a3.3 3.3 0 0 1-.017.966 2.1 2.1 0 0 1-.307.8q-.216.355-.565.58-.338.225-.803.291l-.432-1.084q.429-.043.69-.268.262-.225.367-.547.106-.312.064-.654-.036-.304-.198-.593a1.5 1.5 0 0 0-.455-.484 2 2 0 0 0-.749-.294q-.445-.09-1.072-.013-.799.099-1.264.387-.465.298-.652.736-.177.446-.113.968.066.532.313.82.257.287.626.386.378.099.799.066l-.051 1.077q-.495.05-.95-.038a1.97 1.97 0 0 1-1.414-1.07q-.24-.462-.325-1.156m.209 6.273a3.2 3.2 0 0 1 .271-1.215q.242-.525.669-.892.436-.356 1.047-.53.612-.177 1.386-.144 1.119.046 1.83.459.72.413 1.056 1.098.334.684.3 1.535-.028.66-.27 1.187a2.34 2.34 0 0 1-.669.882 2.8 2.8 0 0 1-1.057.55 4.3 4.3 0 0 1-1.415.152 4.3 4.3 0 0 1-1.397-.27 2.8 2.8 0 0 1-.999-.625 2.6 2.6 0 0 1-.593-.954 3.3 3.3 0 0 1-.159-1.233m.974.07q-.022.545.221.919.252.383.741.596.489.22 1.206.251.737.03 1.271-.148.534-.18.818-.55.293-.363.316-.907a1.53 1.53 0 0 0-.231-.91q-.242-.384-.75-.606-.499-.222-1.235-.253-.555-.022-.99.074a2.1 2.1 0 0 0-.721.296 1.5 1.5 0 0 0-.462.517 1.7 1.7 0 0 0-.184.72m-1.152 4.106 6.172 1.346-.336 1.543-5.237 1.953-.018.084 4.608.927-.251 1.15-6.172-1.346.306-1.402 5.442-2.046.021-.094-4.786-.965zm-2.67 9.201q.234-.577.533-.982.29-.41.649-.635.366-.215.771-.246.414-.029.879.15l-.11 1.112q-.422-.182-.781-.11-.351.075-.624.367-.276.3-.46.753-.176.435-.188.77-.016.346.101.568.125.227.355.32.258.104.484-.021.236-.122.462-.401.233-.268.483-.631.273-.396.558-.766.28-.36.612-.62a1.75 1.75 0 0 1 .716-.339q.39-.07.86.121.531.216.806.636.282.425.29 1.016.014.605-.274 1.314-.283.702-.709 1.138a1.9 1.9 0 0 1-.933.572 1.77 1.77 0 0 1-1.067-.07l.13-1.135a1.3 1.3 0 0 0 .545.107.94.94 0 0 0 .472-.119q.222-.116.394-.336.168-.21.293-.521a2 2 0 0 0 .162-.678 1 1 0 0 0-.11-.52.65.65 0 0 0-.342-.303.59.59 0 0 0-.539.03 1.8 1.8 0 0 0-.501.447q-.241.314-.508.692-.234.35-.504.684a3.7 3.7 0 0 1-.593.597 1.54 1.54 0 0 1-.717.318q-.393.079-.872-.115a1.65 1.65 0 0 1-.794-.642q-.28-.433-.269-1.07.01-.634.34-1.452m-2.953 5.805q.29-.474.621-.799.327-.316.69-.487.357-.165.741-.188t.788.088q.397.12.798.363l3.303 2.011-.633 1.038-3.261-1.986q-.45-.275-.834-.306a1.14 1.14 0 0 0-.702.177q-.318.21-.587.652-.274.45-.309.82a1.08 1.08 0 0 0 .164.705q.205.327.655.6l3.261 1.987-.627 1.03-3.303-2.011q-1.046-.638-1.263-1.588-.213-.938.498-2.106m-2.16 3.592 4.9 3.987-.761.935-4.9-3.986zm-.176.215.802.653-2.331 2.866-.802-.653zm-3.442 3.863 4.422 4.511-.868.851-4.422-4.51zm5.045 2.466.717.732-3.554 3.484-.717-.731zm-7.112-.477 2.06 6.358-1.414 1.066-5.545-3.731 1.055-.795 4.558 3.264.107-.081-1.868-5.292zm-.141 1.736.513.681-3.18 2.396-.513-.68zm-6.219 2.698 3.068 5.522-1.062.59-3.068-5.522zm4.211 3.716.497.895-4.35 2.417-.498-.895zm-7.775-1.823 2.483 5.808-1.126.482-2.484-5.809zm-5.136 1.627q.661-.196 1.238-.136.576.059 1.06.345.477.298.84.82.365.52.584 1.265.317 1.073.156 1.88a2.55 2.55 0 0 1-.698 1.354q-.54.539-1.356.779a3.1 3.1 0 0 1-1.21.128 2.3 2.3 0 0 1-1.051-.348 2.8 2.8 0 0 1-.862-.823 4.3 4.3 0 0 1-.6-1.29 4.3 4.3 0 0 1-.197-1.409 2.8 2.8 0 0 1 .27-1.148q.25-.503.711-.868a3.3 3.3 0 0 1 1.115-.549m.25.944q-.524.154-.8.505-.281.363-.324.895-.052.534.151 1.222.21.708.551 1.155.342.449.785.597.437.16.96.006.495-.147.787-.512.285-.354.331-.907.05-.543-.16-1.25a3.8 3.8 0 0 0-.39-.913 2.2 2.2 0 0 0-.512-.587 1.5 1.5 0 0 0-.639-.27 1.7 1.7 0 0 0-.74.059m-4.26.231.682 6.28-1.57.171-3.514-4.346-.085.009.583 4.664-1.17.127-.682-6.28 1.427-.155 3.667 4.512.095-.01-.603-4.845zm-9.507.595-.788 6.268-1.567-.197-2.414-5.041-.086-.01-.51 4.672-1.169-.147.789-6.268 1.425.179 2.524 5.238.095.012.533-4.853zm-9.709-1.947q.659.204 1.105.573.448.37.691.875.233.513.246 1.148.014.636-.216 1.376-.33 1.07-.912 1.652-.584.59-1.331.74a3.14 3.14 0 0 1-1.561-.103q-.631-.195-1.078-.564-.45-.36-.682-.872a2.8 2.8 0 0 1-.261-1.163 4.3 4.3 0 0 1 .215-1.407q.235-.759.617-1.281.37-.517.86-.806a2.6 2.6 0 0 1 1.075-.329q.574-.043 1.232.161m-.316.924q-.52-.16-.945-.022-.435.146-.766.565-.34.415-.551 1.102-.218.703-.182 1.266.036.562.323.931.275.377.795.537.494.154.939.01.433-.136.778-.57.342-.426.56-1.129.165-.53.182-.976a2.1 2.1 0 0 0-.102-.773 1.5 1.5 0 0 0-.381-.579 1.7 1.7 0 0 0-.65-.362m-4.423-2.622-1.739 6.25-1.15-.63 1.603-5.123-.084-.046-3.56 4.053-1.368-.749 1.502-5.178-.093-.051-3.458 4.109-1.1-.602 4.35-4.821 1.495.818-1.528 5.165.076.041 3.526-4.072zM41.573 99.17q.46.39.518.78.058.389-.295.805-.36.422-.754.427-.393.004-.852-.387-.474-.402-.532-.792-.066-.395.294-.818.353-.416.754-.414.393-.004.867.399m-3.728-6.22q.492.599.614 1.304.116.697-.214 1.428-.33.729-1.165 1.416a4.5 4.5 0 0 1-1.207.732q-.608.24-1.19.21a2.46 2.46 0 0 1-1.118-.32q-.537-.29-1.01-.867-.36-.436-.541-.868a2.4 2.4 0 0 1-.217-.851 1.8 1.8 0 0 1 .132-.79q.152-.372.481-.68l.996.668q-.321.288-.401.627a1.2 1.2 0 0 0 .016.668q.097.33.334.618.346.421.78.572t.96-.008 1.14-.664q.465-.382.726-.759a1.9 1.9 0 0 0 .323-.723q.06-.348-.042-.684a2 2 0 0 0-.36-.634 1.8 1.8 0 0 0-.61-.501 1.16 1.16 0 0 0-.705-.103q-.378.051-.788.338l.815.99-.695.572-1.574-1.915.842-.693 1.65-1.356.558.68-1.327.993.103.126a3.2 3.2 0 0 1 1.024-.322q.468-.05.884.14.41.197.786.656m-2.752-3.338-5.452 3.191-.614-1.049 5.452-3.191zm-.397-.677-.859.502-1.987-3.395.859-.502zm-2.37 1.387-.794.465-1.75-2.99.793-.465zm-2.222 1.301-.86.503-1.977-3.378.859-.503zm1.555-8.464-5.852 2.38-.458-1.126 5.851-2.38zm-4.196 3.732-.949.386-1.876-4.61.949-.386zm2.257-9.172-6.609-.995-.323-1.74 5.814-3.298.24 1.299-4.955 2.622.024.132 5.57.69zm-1.49-.902-.838.156-.726-3.916.837-.155zm.195-8.338-6.316-.152.03-1.206 6.314.152zm-2.466-.605-1.004-.024.088-3.665 1.004.024zm-2.794-.067-1.043-.025.097-4.048 1.043.025zm5.503-4.91-6.226-1.073.414-2.405q.084-.49.24-.881.146-.403.35-.688.207-.294.47-.472.255-.18.567-.243.303-.064.651-.004.33.057.586.207.246.15.409.391.165.233.242.567.071.322.058.738l.122.02q.131-.423.339-.67.21-.255.521-.376.312-.12.777-.167l1.376-.151-.226 1.31-1.257.085a1.5 1.5 0 0 0-.65.16.93.93 0 0 0-.395.379 2 2 0 0 0-.205.625l-.185 1.075 2.226.384zm-2.937-1.73.195-1.132q.122-.708-.079-1.12-.199-.424-.746-.518t-.873.219q-.324.303-.45 1.03l-.197 1.15zm4.133-4.546-5.987-2.015.388-1.152 5.987 2.015zm.25-.744-.943-.317 1.255-3.728.944.317zm-2.603-.876-.87-.293 1.105-3.284.87.293zm-2.44-.821-.943-.318 1.249-3.71.943.318zm6.755-3.049-5.631-2.862.55-1.083 5.632 2.861zm.356-.7-.887-.45 1.782-3.508.887.451zm-2.449-1.244-.82-.416 1.57-3.09.82.417zm-2.295-1.166-.888-.451 1.774-3.49.887.45zm10.265-6.036a3.8 3.8 0 0 1-.963.871 2.6 2.6 0 0 1-1.078.36 2.8 2.8 0 0 1-1.168-.17 4.2 4.2 0 0 1-1.204-.702 4.4 4.4 0 0 1-.977-1.06 3.1 3.1 0 0 1-.434-1.139A2.5 2.5 0 0 1 31.956 39q.171-.562.593-1.083.325-.402.706-.66t.788-.336q.405-.09.81.003.397.087.768.375l-.48 1.065q-.328-.28-.672-.31a1.2 1.2 0 0 0-.648.116q-.298.141-.515.408a1.6 1.6 0 0 0-.288.555 1.5 1.5 0 0 0-.032.663q.058.355.31.744.245.382.736.78.625.505 1.157.639.537.126.982-.043.444-.184.774-.592.337-.417.372-.795a1.27 1.27 0 0 0-.158-.718 2.4 2.4 0 0 0-.508-.62l.81-.712q.381.32.633.709.252.387.313.83.065.435-.1.93t-.604 1.037m4.36-4.515a3.2 3.2 0 0 1-1.061.651 2.6 2.6 0 0 1-1.106.141 2.9 2.9 0 0 1-1.11-.381 4.4 4.4 0 0 1-1.069-.895q-.745-.834-.945-1.632-.205-.805.053-1.523.257-.717.892-1.285a3.1 3.1 0 0 1 1.04-.632q.54-.2 1.099-.135.56.052 1.13.376a4.3 4.3 0 0 1 1.095.91q.53.59.78 1.19.252.582.247 1.152a2.6 2.6 0 0 1-.272 1.09q-.26.513-.774.973m-.63-.748q.407-.363.507-.798a1.63 1.63 0 0 0-.09-.947q-.18-.505-.659-1.041-.491-.55-.991-.809-.501-.258-.965-.203-.463.04-.87.405a1.53 1.53 0 0 0-.493.799q-.105.441.088.96.189.513.679 1.063.37.414.742.658.366.238.715.312.356.067.693-.029.345-.102.645-.37m3.751-2.03-3.31-5.381 1.345-.828 5.039 2.418.073-.045-2.528-3.962 1.003-.617 3.31 5.38-1.222.752-5.248-2.502-.082.05 2.623 4.118zm8.478-4.47a4.5 4.5 0 0 1-1.076.302 2.3 2.3 0 0 1-.908-.024 1.8 1.8 0 0 1-.713-.382 2.1 2.1 0 0 1-.505-.735l.874-.696q.165.429.466.637.297.2.698.192.409-.01.86-.194.435-.177.685-.402.258-.229.337-.468a.7.7 0 0 0-.019-.477.54.54 0 0 0-.352-.333 1.5 1.5 0 0 0-.61-.052 7 7 0 0 0-.788.093q-.474.08-.938.133-.454.05-.871-.008a1.75 1.75 0 0 1-.743-.277q-.32-.231-.511-.701-.218-.532-.105-1.022.107-.498.526-.916.425-.43 1.134-.719.7-.285 1.31-.284.607-.008 1.061.272.455.28.692.814l-.904.698a1.3 1.3 0 0 0-.303-.466.94.94 0 0 0-.414-.255 1.2 1.2 0 0 0-.516-.05 2 2 0 0 0-.578.153 2 2 0 0 0-.6.357 1 1 0 0 0-.295.44.65.65 0 0 0 .02.457.59.59 0 0 0 .396.366q.282.082.67.048.395-.046.851-.118a10 10 0 0 1 .842-.115q.437-.042.84.01.405.054.73.293.33.227.524.707.209.514.092 1.016t-.58.938-1.28.767m6.224-1.912q-.54.12-1.006.107a2.6 2.6 0 0 1-.83-.158 2.1 2.1 0 0 1-.648-.404 2.4 2.4 0 0 1-.484-.628 3.4 3.4 0 0 1-.292-.827l-.843-3.774 1.186-.265.833 3.728q.114.513.358.812.24.289.615.383.371.083.876-.03.513-.114.805-.346.3-.233.394-.608.093-.374-.022-.887l-.832-3.728 1.177-.262.843 3.774q.267 1.196-.267 2.01-.527.805-1.863 1.103m4.086-.936-.527-6.295 1.202-.1.527 6.294zm.277-.023-.086-1.03 3.681-.309.087 1.03zm12.54 31.118L55.81 79.448q-.608.606-1.38.58-.773-.029-1.38-.636-.608-.607-.608-1.407t.608-1.408l20.924-20.924H64.2q-.844 0-1.416-.568-.572-.569-.572-1.408 0-.84.572-1.42.57-.58 1.416-.58h14.575q.845 0 1.416.572.57.572.571 1.416V68.24q0 .844-.568 1.416-.567.572-1.408.572-.84 0-1.419-.572-.58-.57-.58-1.416z"/></svg>