<svg xmlns="http://www.w3.org/2000/svg" width="137" height="136" fill="none" viewBox="0 0 137 136"><path fill="#fb4414" stroke="#fff" stroke-width="4" d="M66.684 2.605a1.763 1.763 0 0 1 2.66 0l3.024 3.473c.621.713 1.693.81 2.432.22l3.596-2.878a1.763 1.763 0 0 1 2.617.474l2.356 3.958a1.763 1.763 0 0 0 2.353.65l4.053-2.19a1.763 1.763 0 0 1 2.49.935l1.61 4.315a1.766 1.766 0 0 0 2.2 1.059l4.378-1.43a1.763 1.763 0 0 1 2.283 1.364l.816 4.533a1.76 1.76 0 0 0 1.974 1.435l4.564-.626a1.763 1.763 0 0 1 2.002 1.75l-.007 4.606a1.764 1.764 0 0 0 1.687 1.764l4.602.2a1.764 1.764 0 0 1 1.658 2.079l-.83 4.53c-.17.93.423 1.829 1.345 2.038l4.492 1.018a1.763 1.763 0 0 1 1.26 2.341l-1.625 4.31c-.334.884.09 1.874.959 2.245l4.239 1.803a1.763 1.763 0 0 1 .821 2.53l-2.368 3.95c-.486.81-.247 1.86.543 2.38l3.848 2.53a1.763 1.763 0 0 1 .357 2.636l-3.036 3.464a1.763 1.763 0 0 0 .109 2.438l3.335 3.178a1.764 1.764 0 0 1-.12 2.657l-3.605 2.866a1.763 1.763 0 0 0-.328 2.419l2.713 3.722a1.763 1.763 0 0 1-.591 2.593l-4.06 2.176a1.76 1.76 0 0 0-.754 2.321l2.005 4.147a1.763 1.763 0 0 1-1.045 2.445l-4.383 1.417c-.9.29-1.41 1.239-1.157 2.15l1.232 4.438a1.762 1.762 0 0 1-1.465 2.219l-4.565.611a1.763 1.763 0 0 0-1.522 1.908l.42 4.587a1.762 1.762 0 0 1-1.837 1.922l-4.602-.214a1.764 1.764 0 0 0-1.838 1.606l-.405 4.589a1.764 1.764 0 0 1-2.152 1.563l-4.489-1.032a1.76 1.76 0 0 0-2.095 1.252l-1.219 4.442a1.762 1.762 0 0 1-2.395 1.153l-4.233-1.817a1.764 1.764 0 0 0-2.285.858l-1.992 4.153a1.763 1.763 0 0 1-2.564.708l-3.84-2.544a1.763 1.763 0 0 0-2.401.436l-2.702 3.731a1.763 1.763 0 0 1-2.649.238l-3.324-3.188a1.76 1.76 0 0 0-2.44 0l-3.325 3.188a1.763 1.763 0 0 1-2.649-.238l-2.701-3.731a1.763 1.763 0 0 0-2.402-.436l-3.84 2.544c-.892.591-2.1.257-2.563-.708l-1.992-4.153a1.764 1.764 0 0 0-2.286-.858l-4.232 1.817a1.762 1.762 0 0 1-2.396-1.153l-1.218-4.442a1.763 1.763 0 0 0-2.096-1.252l-4.489 1.032a1.763 1.763 0 0 1-2.151-1.563l-.406-4.589a1.764 1.764 0 0 0-1.838-1.606l-4.601.214a1.763 1.763 0 0 1-1.838-1.922l.42-4.587a1.763 1.763 0 0 0-1.522-1.908l-4.565-.611a1.763 1.763 0 0 1-1.465-2.219l1.232-4.439a1.763 1.763 0 0 0-1.156-2.15l-4.383-1.416a1.763 1.763 0 0 1-1.045-2.445l2.005-4.147a1.763 1.763 0 0 0-.755-2.321l-4.06-2.176a1.763 1.763 0 0 1-.59-2.593l2.712-3.722a1.763 1.763 0 0 0-.327-2.419l-3.606-2.866a1.763 1.763 0 0 1-.12-2.657l3.335-3.178a1.763 1.763 0 0 0 .11-2.438l-3.037-3.464a1.763 1.763 0 0 1 .357-2.635L7.16 55.44a1.763 1.763 0 0 0 .543-2.38l-2.369-3.95a1.763 1.763 0 0 1 .822-2.529l4.238-1.803c.87-.37 1.293-1.36.96-2.245l-1.626-4.31a1.763 1.763 0 0 1 1.26-2.341l4.493-1.018a1.763 1.763 0 0 0 1.344-2.037l-.83-4.531a1.763 1.763 0 0 1 1.659-2.08l4.601-.199a1.763 1.763 0 0 0 1.687-1.764l-.007-4.606a1.763 1.763 0 0 1 2.003-1.75l4.563.626a1.763 1.763 0 0 0 1.975-1.435l.815-4.533a1.763 1.763 0 0 1 2.283-1.364l4.378 1.43a1.763 1.763 0 0 0 2.2-1.06l1.611-4.314a1.763 1.763 0 0 1 2.49-.934l4.053 2.189a1.763 1.763 0 0 0 2.352-.65l2.357-3.958a1.763 1.763 0 0 1 2.616-.474l3.597 2.877c.738.59 1.81.494 2.431-.219z"/><circle cx="67.514" cy="67.578" r="54.5" stroke="#f0f3ff" stroke-width="2"/><path fill="#fff" d="m70.278 27.24-.8-6.437 1.304.138.492 5.346.095.01 1.726-5.11 1.551.164.607 5.358.105.01 1.61-5.122 1.248.132-2.16 6.124-1.695-.18-.578-5.355-.085-.009-1.688 5.115zm7.209.802 3.882-5.44 1.698.502.304 6.676-1.267-.374-.091-5.606-.129-.038-3.14 4.652zm1.479-.92.241-.817 3.819 1.128-.241.817zm5.87 3.389 2.606-5.755 1.107.501-2.605 5.755zm.474-5.596.423-.933 4.534 2.053-.422.933zm5.254 8.886a3.8 3.8 0 0 1-.971-.86 2.6 2.6 0 0 1-.476-1.033 2.8 2.8 0 0 1 .039-1.18 4.2 4.2 0 0 1 .566-1.273q.433-.678.946-1.088.521-.405 1.084-.556.567-.16 1.146-.05.578.108 1.142.47.435.278.734.628.3.35.42.746.135.394.087.806-.044.405-.288.804l-1.111-.359q.24-.357.234-.702a1.2 1.2 0 0 0-.187-.631 1.45 1.45 0 0 0-.463-.467 1.6 1.6 0 0 0-.583-.226 1.5 1.5 0 0 0-.663.042q-.345.097-.704.39-.354.286-.694.817-.434.678-.508 1.22-.068.549.15.972.231.42.674.705.452.288.831.282.386-.016.697-.236.317-.23.56-.574l.797.726a3.2 3.2 0 0 1-.635.708q-.359.293-.791.402a2 2 0 0 1-.935.004q-.51-.11-1.098-.487m6.139 4.739 4.234-4.688.895.808-4.234 4.688zm-3.083-2.784 4.234-4.689.895.809-4.234 4.688zm2.32-1.555.667-.739 2.934 2.65-.667.738zm5.065 9.242 3.927-5.382.764 1.078-3.383 4.361.067.094 5.239-1.747.753 1.061-6.381 1.924zm2.699 3.95 5.536-3.044.59 1.074-5.536 3.044zm1.459 2.968.921-.378.701 1.71q.219.53.599.778.385.256.897.243.515-.005 1.135-.26a3.4 3.4 0 0 0 .856-.485q.336-.263.485-.582.158-.323.143-.71a2.5 2.5 0 0 0-.199-.84l-.614-1.496.92-.378.6 1.461q.425 1.036.349 1.833a2.32 2.32 0 0 1-.592 1.381q-.507.58-1.41.951-.638.262-1.195.315a3.1 3.1 0 0 1-1.009-.062q-.45-.115-.814-.37a2.8 2.8 0 0 1-.632-.61 3.6 3.6 0 0 1-.429-.765zm-.225-.549 5.844-2.398.458 1.116-5.844 2.398zm2.409 6.177 6.146-1.459.281 1.183-6.146 1.458zm.181.763.969-.23.908 3.828-.969.23zm2.673-.634.894-.212.8 3.371-.894.212zm2.505-.594.968-.23.904 3.809-.968.23zm-4.072 8.707q-.054-.687.124-1.239.177-.551.557-.965.391-.405.976-.653a4.4 4.4 0 0 1 1.359-.308q1.116-.088 1.871.237.765.324 1.18.963.415.64.482 1.489.051.658-.126 1.21a2.34 2.34 0 0 1-.558.956q-.38.414-.985.672a4.3 4.3 0 0 1-1.386.32 4.3 4.3 0 0 1-1.419-.1 2.8 2.8 0 0 1-1.067-.501 2.6 2.6 0 0 1-.702-.876 3.3 3.3 0 0 1-.306-1.205m.976-.048q.043.544.328.886.297.351.808.503.511.162 1.228.106.734-.058 1.243-.3.51-.241.747-.644.248-.393.204-.938a1.53 1.53 0 0 0-.337-.876q-.287-.351-.818-.512-.522-.16-1.256-.102a3.8 3.8 0 0 0-.974.191 2.1 2.1 0 0 0-.681.38q-.268.242-.397.569a1.7 1.7 0 0 0-.095.737m.664 7.305q.06-.6.346-.87t.829-.216q.552.053.781.375.228.32.169.92-.061.62-.348.89-.287.279-.84.224-.543-.053-.77-.383-.227-.32-.167-.94m-2.481 5.198 6.471.45-.386 1.254-5.341-.544-.028.092 4.684 2.675-.459 1.49-5.375-.433-.031.1 4.718 2.566-.369 1.198-5.595-3.296.502-1.628 5.366.461.026-.082-4.696-2.639zm-2.172 6.918 4.583 4.865-.822 1.568-6.608-.998.613-1.17 5.516.999.063-.119-3.954-3.983zm.616 1.63.754.395-1.848 3.527-.754-.395zm-4.462 5.103 5.144 3.666-.706.99-5.144-3.666zm5.399 1.544.834.594-2.889 4.053-.834-.594zm-9.732 3.443q.497-.52 1.032-.788a2.6 2.6 0 0 1 1.104-.269q.57.001 1.15.266.582.264 1.142.8.58.556.885 1.138.297.59.338 1.17.046.588-.171 1.135a3.3 3.3 0 0 1-.681 1.03 3.3 3.3 0 0 1-.759.599q-.4.226-.813.269a1.8 1.8 0 0 1-.807-.07 1.9 1.9 0 0 1-.734-.437l.566-1.021q.305.304.645.364t.655-.062q.309-.114.547-.364.212-.222.333-.529.115-.3.087-.658a2 2 0 0 0-.247-.767q-.212-.4-.669-.837-.58-.557-1.1-.734-.525-.17-.982-.04a1.95 1.95 0 0 0-.82.527q-.371.387-.437.761-.06.38.097.73.164.354.455.66l-.866.641a3.2 3.2 0 0 1-.572-.759 1.97 1.97 0 0 1-.067-1.772q.206-.479.69-.983m-5.828 5.116 3.79 5.053-.964.724-3.79-5.054zm3.323-2.493 3.79 5.053-.964.724-3.79-5.053zm1.082 2.575.597.796-3.162 2.372-.597-.796zm-10.043 3.196 4.521 4.893-1.204.542-3.626-4.162-.105.047.702 5.478-1.187.534-.655-6.632zm-4.398 1.885 1.912 6.021-1.168.371-1.911-6.021zm-3.195.855.192.977-1.813.355q-.565.11-.88.436a1.5 1.5 0 0 0-.413.832q-.096.505.033 1.164.11.553.31.934.192.382.477.589.286.218.669.279t.861-.033l1.588-.311.191.977-1.55.304q-1.098.215-1.865-.015a2.3 2.3 0 0 1-1.24-.849q-.47-.61-.658-1.568a4.2 4.2 0 0 1-.076-1.234q.058-.548.257-.977.2-.42.52-.726.321-.307.722-.503.393-.184.834-.27zm.583-.114 1.215 6.199-1.184.232-1.215-6.199zm-6.527 1.162.248 6.312-1.215.048-.248-6.312zm-.784.031.039.995-3.931.154-.04-.994zm.108 2.745.036.918-3.463.136-.036-.918zm.1 2.573.04.994-3.912.154-.039-.995zm-7.761-5.663q.685.078 1.193.356.507.28.842.731.323.46.455 1.083.132.621.045 1.392-.126 1.113-.588 1.792-.462.69-1.17.976-.705.286-1.552.19a3.1 3.1 0 0 1-1.165-.353 2.3 2.3 0 0 1-.832-.73 2.8 2.8 0 0 1-.474-1.093 4.3 4.3 0 0 1-.05-1.422q.088-.79.366-1.375a2.8 2.8 0 0 1 .696-.952q.426-.366.993-.523.556-.15 1.241-.072m-.138.967q-.542-.061-.933.155a1.63 1.63 0 0 0-.647.697q-.255.472-.336 1.185-.083.734.058 1.278.14.546.49.855.34.318.883.379.513.058.924-.165.4-.214.657-.706.257-.481.34-1.214.062-.55-.004-.992a2.1 2.1 0 0 0-.243-.74 1.5 1.5 0 0 0-.484-.498 1.7 1.7 0 0 0-.705-.234m-7.303-.748q.577.175.786.509.209.333.05.855-.162.531-.52.693-.36.16-.936-.015-.595-.18-.804-.514-.219-.336-.057-.867.159-.522.527-.681.358-.161.954.02m-4.615-3.444-1.697 6.261-1.154-.622 1.568-5.134-.084-.046-3.532 4.078-1.374-.74 1.467-5.189-.093-.05-3.43 4.132-1.104-.594 4.317-4.85 1.5.807-1.492 5.175.076.041 3.498-4.095zm-6.367-3.471-5.657 3.56-1.38-1.109 2.253-6.292 1.03.827-2.044 5.22.105.084 4.67-3.111zm-1.718.29-.533.664-3.105-2.493.533-.664zm-4.15-5.36-4.583 4.348-.836-.882 4.583-4.348zm-2.548 5.004-.743.705-3.426-3.611.743-.705zm-1.515-10.212q.414.586.575 1.164.154.583.051 1.135a2.8 2.8 0 0 1-.481 1.078 4.2 4.2 0 0 1-1.005.966 4.4 4.4 0 0 1-1.287.65q-.635.18-1.213.106a2.5 2.5 0 0 1-1.08-.385 3.2 3.2 0 0 1-.881-.867 3.3 3.3 0 0 1-.442-.86 2.1 2.1 0 0 1-.108-.849q.023-.414.224-.778.193-.36.57-.637l.894.752q-.359.24-.482.562a1.2 1.2 0 0 0-.065.655q.054.326.252.607.177.25.455.429.273.17.63.212.356.04.8-.096.434-.13.95-.495.658-.463.931-.938.27-.482.227-.956a1.95 1.95 0 0 0-.358-.907q-.309-.438-.663-.575a1.27 1.27 0 0 0-.734-.044 2.4 2.4 0 0 0-.735.32l-.464-.974q.413-.279.855-.415.443-.137.885-.074.436.055.867.349.43.294.832.865m-3.898-6.704-5.689 2.745-.524-1.086 5.689-2.745zm1.806 3.74L27.966 90l-.524-1.086 5.69-2.745zm-2.735.566-.897.433-1.718-3.56.897-.433zm-1.197-10.472-5.675 3.49-.299-1.287 4.785-2.752-.026-.112-5.51-.371-.294-1.268 6.634.64zm-.997-4.68-6.278.703-.137-1.218 6.278-.702zm-.22-3.3h-.995v-1.847q0-.574-.258-.948a1.5 1.5 0 0 0-.737-.564q-.479-.192-1.148-.192-.565 0-.977.125a1.6 1.6 0 0 0-.67.354q-.267.239-.402.602-.134.364-.134.852v1.618h-.995v-1.58q0-1.119.373-1.828.373-.717 1.072-1.052.69-.345 1.666-.345.688 0 1.225.163.526.163.909.44.373.279.613.651.238.374.354.804.105.422.105.871zm0 .594H22.19v-1.207h6.318zm.114-6.629-6.244-.956.184-1.202 6.244.957zm.119-.776-.984-.15.596-3.889.984.15zm-2.715-.416-.909-.139.525-3.425.908.14zm-2.545-.39-.984-.15.592-3.87.984.151zm7.047-6.538q-.21.657-.581 1.101a2.6 2.6 0 0 1-.88.684 2.9 2.9 0 0 1-1.15.238 4.4 4.4 0 0 1-1.375-.226q-1.067-.34-1.644-.925-.587-.588-.73-1.336-.144-.75.114-1.56a3.1 3.1 0 0 1 .572-1.074q.363-.448.877-.676a2.8 2.8 0 0 1 1.165-.252q.648-.015 1.405.225t1.277.627q.514.374.8.867.276.49.32 1.076a3.3 3.3 0 0 1-.17 1.231m-.922-.323q.165-.52.03-.945a1.63 1.63 0 0 0-.56-.77q-.413-.342-1.097-.56-.702-.223-1.265-.19-.563.03-.934.315-.378.271-.543.792a1.53 1.53 0 0 0-.017.939q.133.434.565.782.423.346 1.125.568.53.168.974.19.436.018.774-.097.34-.122.582-.377.245-.264.366-.647m2.148-7.02q-.284.532-.651.672t-.85-.117q-.489-.261-.577-.644-.09-.384.195-.916.293-.548.66-.689.373-.148.863.113.48.257.565.649.088.383-.205.932m4.272-3.861-5.817-2.872.833-1.013 4.735 2.529.061-.074-3.32-4.252.99-1.205 4.81 2.44.066-.082-3.392-4.163.796-.969 3.926 5.172-1.081 1.316-4.79-2.462-.055.067 3.344 4.222zm4.633-5.579-2.41-6.234 1.353-1.143 5.744 3.418-1.01.852-4.731-3.006-.103.086 2.159 5.18zm.045-1.742-.55-.65 3.042-2.57.55.65zm6.055-3.045-3.392-5.33 1.026-.652 3.391 5.329zm-4.425-3.459-.55-.864 4.2-2.672.55.864zm10.317.474a3.8 3.8 0 0 1-1.253.34 2.6 2.6 0 0 1-1.124-.17 2.8 2.8 0 0 1-.964-.682 4.2 4.2 0 0 1-.753-1.173 4.4 4.4 0 0 1-.389-1.388 3.1 3.1 0 0 1 .13-1.211q.18-.562.589-.985a3.2 3.2 0 0 1 1.02-.696q.473-.21.929-.268.457-.057.854.06.403.103.72.37.315.258.515.683l-.91.73q-.168-.397-.46-.581a1.2 1.2 0 0 0-.63-.19 1.45 1.45 0 0 0-.643.13 1.6 1.6 0 0 0-.51.362 1.5 1.5 0 0 0-.329.577 2 2 0 0 0-.061.803q.045.45.301 1.029.327.734.74 1.095.421.357.895.408.478.039.959-.176.49-.218.692-.54.198-.33.186-.71a2.4 2.4 0 0 0-.171-.784l1.044-.267q.194.458.242.92.049.459-.099.882a2 2 0 0 1-.51.783q-.372.365-1.01.65m7.333-2.524-1.59-6.114 1.166-.303 1.59 6.113zm-4.02 1.046-1.591-6.114 1.167-.304 1.59 6.114zm-.025-2.793-.25-.963 3.825-.996.25.964zm8.594 49.472 10.765-6.901q.773-.498.773-1.38 0-.885-.773-1.38l-10.766-6.902q-.828-.552-1.683-.083t-.856 1.463V74.48q0 .994.856 1.462.855.47 1.684-.082m2.98 13.802q-4.581 0-8.612-1.74-4.03-1.738-7.011-4.72-2.982-2.98-4.72-7.011-1.74-4.03-1.74-8.612 0-4.583 1.74-8.613 1.738-4.03 4.72-7.011 2.98-2.982 7.011-4.72 4.03-1.74 8.613-1.74t8.612 1.74 7.012 4.72q2.98 2.98 4.72 7.011 1.74 4.03 1.74 8.613 0 4.581-1.74 8.612t-4.72 7.011q-2.982 2.982-7.012 4.72-4.03 1.74-8.612 1.74"/></svg>